<svg width="84" height="84" viewBox="0 0 84 84" fill="none" xmlns="http://www.w3.org/2000/svg">
<path d="M49.2948 23.9823L40.5361 35.9762C39.9677 36.7547 38.7512 36.5299 38.4985 35.5997L37.6302 32.4041C37.3555 31.3931 37.5552 30.3121 38.1731 29.466L43.8947 21.6309C47.3088 16.9557 53.8665 15.9333 58.5417 19.3474C63.1302 22.6982 64.2137 29.0945 60.9848 33.7696L55.401 41.8543C54.7558 42.7885 53.6921 43.3453 52.5567 43.343L48.81 43.3357C47.8705 43.3339 47.3298 42.267 47.8839 41.5082L56.7217 29.4059C58.2194 27.355 57.7709 24.4783 55.72 22.9806C53.6691 21.4829 50.7924 21.9314 49.2948 23.9823Z" fill="#676BE6"/>
<path d="M35.4916 59.4524L44.2502 47.4585C44.8187 46.68 46.0351 46.9048 46.2879 47.835L47.1562 51.0306C47.4309 52.0415 47.2311 53.1226 46.6133 53.9687L40.8916 61.8038C37.4775 66.479 30.9199 67.5014 26.2447 64.0873C21.6562 60.7365 20.5726 54.3402 23.8015 49.6651L29.3853 41.5804C30.0306 40.6462 31.0943 40.0894 32.2297 40.0917L35.9764 40.0989C36.9159 40.1008 37.4566 41.1677 36.9025 41.9264L28.0647 54.0288C26.567 56.0797 27.0155 58.9564 29.0663 60.4541C31.1172 61.9518 33.9939 61.5033 35.4916 59.4524Z" fill="#676BE6"/>
<path d="M37.7009 53.3376L48.5224 38.5186C49.4655 37.2272 49.1831 35.4157 47.8917 34.4726C46.6002 33.5295 44.7888 33.8119 43.8457 35.1034L33.0241 49.9223C32.081 51.2138 32.3634 53.0252 33.6549 53.9683C34.9463 54.9114 36.7578 54.629 37.7009 53.3376Z" fill="#676BE6"/>
<path d="M46.1291 16.4271H31.7597" stroke="#676BE6" stroke-width="1.14955" stroke-linecap="round"/>
<path d="M42.1057 18.7262L26.012 18.7262" stroke="#676BE6" stroke-width="1.14955" stroke-linecap="round"/>
<path d="M30.0354 16.4271H28.3111" stroke="#676BE6" stroke-width="1.14955" stroke-linecap="round"/>
<circle cx="42.3798" cy="41.6202" r="40.7708" stroke="#676BE6" stroke-width="1.69878"/>
</svg>
