<svg width="662" height="494" viewBox="0 0 662 494" fill="none" xmlns="http://www.w3.org/2000/svg">
<path d="M662 436.413H0V436.731H662V436.413Z" fill="#D9E4F6"/>
<path d="M595.668 456.879H566.963V457.197H595.668V456.879Z" fill="#D9E4F6"/>
<path d="M456.343 450.29H411.181V450.608H456.343V450.29Z" fill="#D9E4F6"/>
<path d="M584.043 445.075H525.085V445.393H584.043V445.075Z" fill="#D9E4F6"/>
<path d="M229.078 451.486H214.329V451.804H229.078V451.486Z" fill="#D9E4F6"/>
<path d="M202.532 451.486H151.704V451.804H202.532V451.486Z" fill="#D9E4F6"/>
<path d="M124.469 446.118H87.7944V446.436H124.469V446.118Z" fill="#D9E4F6"/>
<path d="M313.788 379.682H58.1369C56.1341 379.678 54.2146 378.912 52.7997 377.55C51.3848 376.188 50.5901 374.343 50.5901 372.418V27.1595C50.6075 25.2465 51.4099 23.4173 52.8229 22.0692C54.236 20.7212 56.1456 19.9633 58.1369 19.96H313.788C315.793 19.96 317.716 20.7252 319.134 22.0873C320.552 23.4494 321.348 25.2968 321.348 27.2231V372.418C321.348 374.345 320.552 376.192 319.134 377.554C317.716 378.916 315.793 379.682 313.788 379.682V379.682ZM58.1369 20.2144C56.2219 20.2178 54.3866 20.951 53.0337 22.2531C51.6809 23.5552 50.9211 25.3198 50.9211 27.1595V372.418C50.9211 374.258 51.6809 376.023 53.0337 377.325C54.3866 378.627 56.2219 379.36 58.1369 379.364H313.788C315.704 379.36 317.541 378.627 318.896 377.326C320.251 376.024 321.014 374.259 321.017 372.418V27.1595C321.014 25.3186 320.251 23.554 318.896 22.2523C317.541 20.9505 315.704 20.2178 313.788 20.2144H58.1369Z" fill="#D9E4F6"/>
<path d="M600.182 379.682H344.518C342.514 379.678 340.593 378.912 339.176 377.551C337.759 376.189 336.962 374.344 336.958 372.418V27.1595C336.979 25.2453 337.784 23.4161 339.199 22.0684C340.615 20.7208 342.525 19.9632 344.518 19.96H600.182C602.171 19.9666 604.078 20.7261 605.488 22.0737C606.898 23.4214 607.699 25.2487 607.716 27.1595V372.418C607.716 374.34 606.923 376.184 605.511 377.545C604.099 378.907 602.183 379.675 600.182 379.682V379.682ZM344.518 20.2144C342.602 20.2178 340.765 20.9505 339.41 22.2523C338.055 23.554 337.293 25.3186 337.289 27.1595V372.418C337.293 374.259 338.055 376.024 339.41 377.326C340.765 378.627 342.602 379.36 344.518 379.364H600.182C602.099 379.36 603.935 378.627 605.29 377.326C606.645 376.024 607.408 374.259 607.411 372.418V27.1595C607.408 25.3186 606.645 23.554 605.29 22.2523C603.935 20.9505 602.099 20.2178 600.182 20.2144H344.518Z" fill="#D9E4F6"/>
<path d="M286.077 205.519L286.672 188.805L276.001 185.447C275.542 179.783 274.586 174.166 273.141 168.657L282.197 162.297L276.054 146.6L264.853 147.465C262.197 142.408 259.097 137.578 255.585 133.028L261.384 123.73L249.468 111.506L239.459 116.428C234.958 112.732 230.149 109.397 225.08 106.456L226.695 95.7712L210.807 88.8515L203.525 97.0432C197.907 95.3167 192.15 94.0404 186.313 93.2272L183.665 82.7586L166.215 82.1862L162.773 92.4513C156.883 92.8961 151.041 93.8109 145.309 95.1861L138.583 86.5365L122.245 92.4004L123.145 103.162C117.884 105.752 112.857 108.76 108.118 112.155L98.3732 106.456L85.5966 117.904L90.7205 127.571C86.8721 131.874 83.4169 136.487 80.3933 141.36L69.2849 139.757L62.0294 155.021L70.6089 162.004C68.7991 167.398 67.4703 172.93 66.6369 178.54L55.608 181.199L55.0122 197.913L65.7366 201.271C66.1802 206.932 67.1326 212.545 68.5832 218.049L59.527 224.409L65.6836 240.118L76.8847 239.253C79.5336 244.314 82.6346 249.144 86.1527 253.69L80.3403 262.988L92.2563 275.212L102.266 270.29C106.755 273.985 111.555 277.316 116.618 280.249L114.95 290.921L130.838 297.854L138.159 289.662C143.777 291.404 149.534 292.702 155.371 293.542L158.019 304.01L175.47 304.583L178.912 294.318C184.806 293.868 190.651 292.953 196.389 291.583L203.009 300.232L219.347 294.369L218.5 283.607C223.751 281.001 228.776 277.993 233.527 274.614L243.153 280.186L255.929 268.738L250.805 259.071C254.655 254.769 258.11 250.156 261.133 245.282L272.241 246.885L279.496 231.621L270.917 224.625C272.757 219.235 274.108 213.702 274.955 208.089L286.077 205.519ZM168.519 259.668C154.866 259.225 141.656 254.902 130.561 247.245C119.466 239.588 110.983 228.942 106.187 216.653C101.391 204.364 100.496 190.985 103.615 178.207C106.735 165.429 113.729 153.828 123.713 144.87C133.697 135.912 146.222 129.999 159.704 127.881C173.186 125.763 187.019 127.533 199.453 132.969C211.887 138.405 222.364 147.262 229.558 158.419C236.752 169.576 240.341 182.532 239.869 195.649C239.241 213.227 231.371 229.846 217.991 241.852C204.611 253.857 186.816 260.266 168.519 259.668V259.668Z" fill="#D9E4F6"/>
<path d="M583.884 150.238L588.267 146.308L586.532 142.988C587.855 141.5 589.047 139.909 590.094 138.231L593.933 138.778L596.409 133.511L593.47 131.107C594.103 129.245 594.568 127.335 594.86 125.396L598.633 124.493L598.819 118.718L595.138 117.573C594.976 115.617 594.649 113.678 594.158 111.773L597.27 109.547L595.151 104.141L591.298 104.434C590.369 102.69 589.293 101.022 588.081 99.4473L590.08 96.2673L585.963 92.0442L582.52 93.736C580.97 92.4678 579.313 91.3234 577.569 90.3143L578.125 86.6255L572.657 84.2214L570.141 87.058C568.199 86.4771 566.211 86.0517 564.196 85.786L563.256 82.1735L557.245 81.9573L556.04 85.5189C554.012 85.6678 552.002 85.9827 550.029 86.4602L547.726 83.471L542.085 85.4934L542.403 89.2077C540.583 90.0916 538.847 91.1258 537.213 92.2986L533.877 90.3779L529.481 94.3084L531.189 97.552C529.856 99.0353 528.66 100.627 527.614 102.309L523.788 101.762L521.299 107.028L524.251 109.445C523.639 111.304 523.196 113.211 522.927 115.144L519.14 116.047L518.955 121.822L522.649 122.967C522.8 124.923 523.123 126.863 523.616 128.767L520.491 130.98L522.609 136.386L526.475 136.106C527.405 137.85 528.481 139.517 529.693 141.093L527.693 144.273L531.811 148.496L535.254 146.804C536.801 148.076 538.457 149.221 540.205 150.226L539.636 153.902L545.117 156.306L547.633 153.482C549.576 154.057 551.564 154.482 553.578 154.754L554.518 158.366L560.529 158.583L561.734 155.021C563.762 154.873 565.773 154.558 567.744 154.08L570.048 157.069L575.689 155.046L575.384 151.332C577.199 150.447 578.931 149.413 580.561 148.241L583.884 150.238ZM552.611 125.905C551.455 124.715 550.692 123.222 550.419 121.615C550.147 120.008 550.376 118.36 551.078 116.878C551.781 115.397 552.925 114.148 554.366 113.292C555.807 112.435 557.48 112.008 559.174 112.065C560.867 112.122 562.505 112.66 563.88 113.612C565.255 114.563 566.306 115.885 566.899 117.41C567.492 118.935 567.6 120.595 567.211 122.18C566.822 123.764 565.953 125.202 564.713 126.312C563.89 127.057 562.921 127.639 561.863 128.022C560.804 128.405 559.677 128.583 558.547 128.545C557.417 128.508 556.305 128.255 555.277 127.801C554.249 127.348 553.325 126.704 552.558 125.905H552.611Z" fill="#D9E4F6"/>
<path d="M423.68 321.856L409.99 312.762C408.648 308.026 406.802 303.435 404.482 299.062L407.991 285.833L388.131 265.405L374.149 267.86C369.763 265.335 365.117 263.251 360.287 261.64V261.64L351.787 247.89L322.659 246.936L313.205 260.088C308.282 261.377 303.508 263.145 298.959 265.367L285.19 261.996L263.926 281.076L266.481 294.483C263.856 298.706 261.691 303.177 260.02 307.826L245.708 315.993L244.715 343.977L258.418 353.059C259.738 357.82 261.58 362.434 263.913 366.822V366.822L260.365 379.936L280.225 400.364L294.113 397.922C298.533 400.45 303.208 402.538 308.068 404.155V404.155L316.555 417.88L345.683 418.846L355.123 405.694C360.091 404.405 364.909 402.632 369.502 400.402L383.192 403.761L404.469 384.681L401.913 371.274C404.547 367.051 406.712 362.574 408.374 357.918V357.918L422.687 349.751L423.68 321.856ZM333.052 364.329C326.586 364.116 320.33 362.067 315.076 358.439C309.822 354.811 305.806 349.768 303.535 343.947C301.264 338.127 300.841 331.79 302.318 325.738C303.796 319.687 307.108 314.192 311.836 309.948C316.564 305.705 322.495 302.903 328.88 301.898C335.265 300.893 341.817 301.73 347.707 304.302C353.597 306.874 358.562 311.066 361.972 316.348C365.382 321.631 367.086 327.766 366.867 333.979C366.563 342.311 362.83 350.186 356.488 355.877C350.146 361.567 341.712 364.607 333.039 364.329H333.052Z" fill="#D9E4F6"/>
<path d="M454.86 242.56H454.768L431.836 241.81C431.371 241.801 430.916 241.681 430.514 241.458C430.111 241.236 429.773 240.919 429.532 240.538L423.349 230.552C420.016 229.381 416.792 227.943 413.71 226.253L403.82 227.894C403.359 227.975 402.885 227.943 402.44 227.8C401.996 227.658 401.596 227.41 401.278 227.08L385.615 210.976C385.286 210.643 385.053 210.233 384.937 209.788C384.821 209.342 384.826 208.875 384.953 208.432L387.455 199.007C385.905 195.953 384.638 192.773 383.669 189.505L373.699 182.89C373.312 182.635 372.999 182.291 372.788 181.888C372.578 181.486 372.477 181.038 372.494 180.588L373.275 158.557C373.291 158.112 373.42 157.678 373.65 157.292C373.881 156.906 374.207 156.581 374.599 156.344L385.019 150.404C386.221 147.209 387.714 144.123 389.481 141.182L387.654 131.603C387.569 131.159 387.601 130.701 387.75 130.271C387.898 129.842 388.156 129.456 388.501 129.148L405.263 114.113C405.61 113.796 406.035 113.57 406.499 113.457C406.963 113.343 407.449 113.346 407.911 113.465L417.762 115.882C420.933 114.391 424.233 113.17 427.626 112.231L434.51 102.653C434.766 102.272 435.123 101.964 435.545 101.761C435.966 101.557 436.436 101.466 436.907 101.495L459.825 102.258C460.291 102.268 460.747 102.389 461.152 102.611C461.557 102.834 461.897 103.149 462.142 103.53L468.325 113.528C471.634 114.695 474.832 116.134 477.885 117.828L487.894 116.06C488.355 115.977 488.83 116.009 489.274 116.151C489.719 116.294 490.119 116.542 490.436 116.874L506.099 132.977C506.425 133.312 506.658 133.721 506.773 134.167C506.889 134.612 506.885 135.078 506.761 135.521L504.245 144.972C505.796 148.02 507.072 151.191 508.059 154.449L518.015 161.063C518.402 161.318 518.715 161.663 518.925 162.065C519.136 162.468 519.237 162.915 519.22 163.365L518.439 185.384C518.423 185.83 518.294 186.266 518.063 186.654C517.833 187.042 517.507 187.37 517.115 187.61L506.695 193.55C505.485 196.737 503.992 199.818 502.233 202.759L504.06 212.35C504.146 212.793 504.113 213.249 503.965 213.676C503.816 214.103 503.558 214.487 503.213 214.792L486.345 229.84C485.998 230.156 485.572 230.38 485.108 230.492C484.644 230.603 484.158 230.598 483.697 230.476L473.899 228.072C470.707 229.555 467.389 230.777 463.983 231.723L457.164 241.288C456.918 241.666 456.58 241.979 456.178 242.201C455.776 242.423 455.323 242.546 454.86 242.56V242.56ZM433.557 236.493L453.417 237.141L460.037 227.996C460.404 227.462 460.966 227.08 461.613 226.927C465.338 225.948 468.953 224.615 472.403 222.946V222.946C473.005 222.667 473.688 222.6 474.336 222.755L483.604 225.032L498.168 211.994L496.5 202.797C496.371 202.155 496.494 201.489 496.844 200.927C498.811 197.778 500.43 194.44 501.677 190.968C501.887 190.338 502.33 189.804 502.921 189.467L512.891 183.794L513.566 164.714L504.034 158.354C503.531 158.024 503.155 157.546 502.961 156.993C502.961 156.929 502.961 156.853 502.961 156.776C501.941 153.26 500.557 149.851 498.83 146.6C498.524 146.018 498.449 145.349 498.618 144.718L501.002 135.712L487.431 121.72L477.911 123.399C477.246 123.515 476.56 123.397 475.978 123.068C472.693 121.175 469.215 119.611 465.598 118.4C465.39 118.336 465.19 118.251 465.002 118.146C464.621 117.917 464.303 117.603 464.075 117.23L458.104 107.626L438.244 106.965L431.624 116.136C431.229 116.674 430.647 117.057 429.982 117.217C426.295 118.185 422.719 119.511 419.311 121.173C418.71 121.468 418.017 121.54 417.365 121.377L407.991 119.087L393.427 132.125L395.174 141.245C395.278 141.821 395.19 142.413 394.923 142.937L394.79 143.153C392.821 146.315 391.202 149.666 389.958 153.151C389.739 153.749 389.307 154.253 388.74 154.576L378.77 160.262L378.095 179.342L387.641 185.702C388.185 186.059 388.579 186.591 388.753 187.203C389.745 190.774 391.125 194.236 392.871 197.531C392.965 197.719 393.04 197.915 393.096 198.116C393.195 198.535 393.195 198.97 393.096 199.388L390.712 208.292L404.283 222.284L413.737 220.618C414.397 220.502 415.079 220.619 415.657 220.949C418.967 222.838 422.466 224.402 426.103 225.617C426.759 225.804 427.314 226.228 427.652 226.8L433.557 236.493ZM445.831 212.363C445.341 212.363 444.851 212.363 444.361 212.363C433.355 212.177 422.87 207.821 415.19 200.245C407.509 192.669 403.255 182.485 403.352 171.91C403.448 161.335 407.889 151.224 415.707 143.779C423.525 136.334 434.088 132.157 445.096 132.157C456.104 132.157 466.666 136.334 474.484 143.779C482.302 151.224 486.743 161.335 486.84 171.91C486.937 182.485 482.682 192.669 475.001 200.245C467.321 207.821 456.837 212.177 445.831 212.363ZM445.831 137.2C436.212 137.36 427.049 141.163 420.335 147.782C413.622 154.4 409.902 163.299 409.985 172.541C410.068 181.782 413.947 190.618 420.778 197.125C427.61 203.632 436.84 207.282 446.459 207.282C456.079 207.282 465.309 203.632 472.141 197.125C478.972 190.618 482.851 181.782 482.934 172.541C483.017 163.299 479.297 154.4 472.583 147.782C465.87 141.163 456.706 137.36 447.088 137.2H445.831Z" fill="#D9E4F6"/>
<path d="M507.675 83.967L498.168 81.5248L495.626 72.3918L499.347 68.8302L503.266 76.6276L511.395 80.4054L507.675 83.967Z" fill="#D9E4F6"/>
<path d="M508.257 77.8614C508.668 77.4664 508.995 76.9974 509.217 76.4812C509.44 75.9651 509.554 75.4118 509.554 74.8531C509.554 74.2945 509.44 73.7412 509.217 73.2251C508.995 72.7089 508.668 72.2399 508.257 71.8449C507.846 71.4498 507.358 71.1364 506.821 70.9226C506.283 70.7088 505.707 70.5988 505.126 70.5988C504.544 70.5988 503.969 70.7088 503.431 70.9226C502.894 71.1364 502.406 71.4498 501.995 71.8449L506.721 65.0269L513.05 68.1052L514.44 74.4652L508.257 77.8614Z" fill="#D9E4F6"/>
<path d="M498.592 69.568L505.556 62.8773L515.036 65.3068L517.591 74.427L510.627 81.1177L501.134 78.6628L498.592 69.568ZM511.236 75.0376C511.856 74.4415 512.278 73.6822 512.449 72.8557C512.619 72.0292 512.531 71.1727 512.195 70.3943C511.86 69.6159 511.291 68.9507 510.562 68.4826C509.833 68.0146 508.975 67.7648 508.098 67.7648C507.221 67.7648 506.364 68.0146 505.634 68.4826C504.905 68.9507 504.337 69.6159 504.001 70.3943C503.665 71.1727 503.577 72.0292 503.748 72.8557C503.918 73.6822 504.34 74.4415 504.96 75.0376C505.799 75.8281 506.929 76.2688 508.104 76.264C509.279 76.2593 510.404 75.8094 511.236 75.0121V75.0376Z" fill="#D9E4F6"/>
<path d="M119.451 327.415L124.549 326.092L125.913 321.195L123.927 319.287L121.821 323.472L117.452 325.494L119.451 327.415Z" fill="#D9E4F6"/>
<path d="M119.16 324.133C118.762 323.696 118.551 323.13 118.571 322.549C118.591 321.969 118.84 321.417 119.268 321.006C119.695 320.595 120.27 320.356 120.874 320.337C121.478 320.318 122.068 320.52 122.523 320.902L119.994 317.252L116.512 318.88L115.771 322.314L119.16 324.133Z" fill="#D9E4F6"/>
<path d="M124.324 319.669L120.59 316.082L115.492 317.354L114.168 322.251L117.836 325.876L122.933 324.604L124.324 319.669ZM117.545 322.607C117.299 322.4 117.1 322.148 116.961 321.865C116.821 321.581 116.743 321.273 116.733 320.96C116.722 320.647 116.778 320.335 116.898 320.043C117.018 319.752 117.199 319.487 117.429 319.265C117.66 319.044 117.936 318.87 118.239 318.755C118.543 318.64 118.867 318.586 119.193 318.596C119.52 318.606 119.84 318.681 120.135 318.815C120.43 318.949 120.693 319.14 120.908 319.376C121.306 319.813 121.516 320.379 121.496 320.96C121.476 321.541 121.227 322.093 120.8 322.503C120.372 322.914 119.798 323.153 119.193 323.173C118.589 323.192 118 322.99 117.545 322.607V322.607Z" fill="#D9E4F6"/>
<path d="M101.101 58.9595L105.338 63.0299C105.867 63.5302 106.581 63.8105 107.324 63.8105C108.066 63.8105 108.78 63.5302 109.31 63.0299V63.0299C109.827 62.5193 110.117 61.8347 110.117 61.1219C110.117 60.4091 109.827 59.7245 109.31 59.2139L105.086 55.1562C104.554 54.6589 103.842 54.3807 103.1 54.3807C102.358 54.3807 101.645 54.6589 101.114 55.1562V55.1562C100.595 55.663 100.304 56.3446 100.301 57.0553C100.299 57.7659 100.586 58.4494 101.101 58.9595Z" fill="#D9E4F6"/>
<path d="M98.1215 48.8471C99.2271 48.5518 100.398 48.573 101.492 48.9082C102.585 49.2435 103.552 49.8781 104.275 50.7342C104.998 51.5903 105.445 52.6306 105.562 53.7274C105.678 54.8242 105.458 55.9297 104.929 56.9082C104.401 57.8867 103.586 58.6956 102.586 59.2356C101.585 59.7755 100.442 60.0231 99.2976 59.9478C98.1528 59.8725 97.0557 59.4777 96.1412 58.8118C95.2267 58.1459 94.5345 57.2379 94.1495 56.1993C93.9052 55.4661 93.8142 54.6936 93.8818 53.9265C93.9494 53.1593 94.1742 52.4126 94.5434 51.7293C94.9125 51.0459 95.4187 50.4395 96.0328 49.9449C96.6469 49.4502 97.3568 49.0771 98.1215 48.8471V48.8471Z" fill="#D9E4F6"/>
<path d="M93.514 55.5183L94.1272 57.1583L106.712 52.8149L106.099 51.1749L93.514 55.5183Z" fill="#D9E4F6"/>
<path d="M331 493.856C472.777 493.856 587.71 487.41 587.71 479.457C587.71 471.505 472.777 465.058 331 465.058C189.223 465.058 74.2896 471.505 74.2896 479.457C74.2896 487.41 189.223 493.856 331 493.856Z" fill="#F5F5F5"/>
<path d="M126.688 44.6218C125.364 39.0123 125.947 34.3058 128.463 30.4644C130.978 26.623 135.083 24.1044 140.921 22.8324C146.76 21.5604 151.805 22.0692 155.75 24.4351C159.696 26.8011 162.37 30.7951 163.694 36.2647C164.629 39.6406 164.706 43.1828 163.919 46.5934C163.15 49.4258 161.523 51.9754 159.246 53.9201C156.54 56.1082 153.294 57.589 149.819 58.2194C146.413 59.0883 142.846 59.2057 139.386 58.5629C136.378 57.8606 133.657 56.3102 131.574 54.1109C129.085 51.4288 127.397 48.1501 126.688 44.6218V44.6218ZM137.731 42.2559C138.552 45.7157 139.809 48.0562 141.504 49.2773C142.379 49.8377 143.363 50.2223 144.396 50.4081C145.43 50.5939 146.492 50.577 147.518 50.3583C148.545 50.1397 149.515 49.7239 150.37 49.1359C151.225 48.5479 151.947 47.7999 152.493 46.9368C153.447 45.1687 153.46 42.3576 152.559 38.5289C151.792 35.298 150.551 33.0847 148.839 31.8891C147.977 31.2946 146.987 30.8934 145.942 30.7151C144.897 30.5368 143.824 30.5859 142.802 30.8587C141.778 31.0429 140.812 31.4476 139.975 32.0425C139.137 32.6373 138.452 33.4069 137.969 34.2931C136.989 36.163 136.897 38.707 137.731 42.2559Z" fill="#D9E4F6"/>
<path d="M168.884 40.4242C168.414 38.6907 168.33 36.8813 168.638 35.1146C168.946 33.3478 169.639 31.6635 170.672 30.1718C171.829 28.5871 173.301 27.2376 175.003 26.2008C176.705 25.164 178.603 24.4602 180.589 24.1298C185.77 23.002 190.024 23.5914 193.352 25.8979C196.152 27.9836 198.056 30.9862 198.701 34.3336C199.345 37.681 198.686 41.1392 196.847 44.0493C194.782 47.0767 191.419 49.0949 186.758 50.1041C183.168 51.0684 179.337 50.7708 175.955 49.2646C174.146 48.4153 172.566 47.1752 171.34 45.6415C170.113 44.1077 169.273 42.322 168.884 40.4242V40.4242ZM178.828 38.2236C179.095 40.0011 179.999 41.6336 181.383 42.841C181.932 43.2399 182.564 43.5193 183.236 43.6597C183.909 43.8002 184.605 43.7983 185.276 43.6543C185.948 43.5102 186.579 43.2275 187.125 42.8256C187.671 42.4238 188.12 41.9125 188.44 41.3273C189.133 39.6187 189.198 37.734 188.625 35.9849C188.347 34.2491 187.453 32.6587 186.096 31.482C185.57 31.0718 184.952 30.7838 184.29 30.6404C183.629 30.497 182.942 30.5021 182.283 30.6552C181.596 30.792 180.951 31.0773 180.396 31.4894C179.84 31.9015 179.39 32.4297 179.079 33.0338C178.366 34.6823 178.277 36.5187 178.828 38.2236Z" fill="#D9E4F6"/>
<path d="M208.591 54.696L200.475 20.352L209.743 18.3168L210.617 21.9929C211.271 20.5268 212.22 19.1997 213.411 18.0879C214.717 17.0226 216.277 16.2842 217.952 15.9382C219.5 15.5337 221.129 15.5104 222.688 15.8706C224.248 16.2307 225.688 16.9627 226.876 17.9988C229.493 20.3489 231.268 23.4347 231.947 26.8138C232.926 30.9478 232.635 34.3313 231.099 36.9898C230.369 38.2608 229.359 39.364 228.141 40.2229C226.922 41.0817 225.524 41.6755 224.042 41.9633C222.615 42.2884 221.136 42.3445 219.686 42.1287C218.296 41.8947 216.971 41.3881 215.794 40.6404L218.601 52.5082L208.591 54.696ZM213.371 30.7061C213.614 32.2948 214.441 33.7475 215.701 34.8019C216.207 35.1738 216.793 35.431 217.417 35.5543C218.04 35.6777 218.685 35.664 219.302 35.5142C219.876 35.4038 220.414 35.1656 220.874 34.8187C221.334 34.4718 221.703 34.026 221.95 33.5172C222.513 31.9252 222.513 30.1992 221.95 28.6073C221.708 27.0107 220.91 25.54 219.686 24.4351C219.232 24.0728 218.698 23.8156 218.124 23.6833C217.55 23.551 216.952 23.5471 216.376 23.6719C215.768 23.7981 215.197 24.0547 214.707 24.4225C214.216 24.7903 213.818 25.2599 213.543 25.7962C212.895 27.3641 212.834 29.0998 213.371 30.7061Z" fill="#D9E4F6"/>
<path d="M236.197 31.4566L245.835 28.4165C246.348 29.3117 247.146 30.0251 248.113 30.4517C249.153 30.741 250.253 30.7641 251.305 30.5187C252.357 30.2733 253.324 29.7678 254.11 29.0525C254.33 28.828 254.489 28.5555 254.575 28.2585C254.66 27.9615 254.669 27.649 254.6 27.348C254.521 27.0036 254.336 26.69 254.069 26.4475C253.802 26.2049 253.466 26.0446 253.104 25.987C251.608 25.8292 250.099 25.8292 248.602 25.987C246.091 26.1922 243.567 26.1922 241.056 25.987C239.586 25.782 238.208 25.1773 237.084 24.2443C235.885 23.2474 235.057 21.9023 234.725 20.4128C234.392 18.9232 234.575 17.3703 235.243 15.989C236.015 14.5111 237.215 13.2787 238.699 12.4402C240.811 11.2875 243.105 10.4753 245.491 10.0361C247.768 9.4423 250.123 9.16811 252.482 9.22201C253.963 9.31364 255.399 9.7502 256.666 10.494C258.015 11.3687 259.16 12.5036 260.029 13.8267L250.761 16.765C250.414 16.1022 249.838 15.576 249.132 15.2767C248.166 14.9448 247.119 14.9005 246.127 15.1495C245.25 15.267 244.436 15.6554 243.81 16.2562C243.61 16.461 243.467 16.7094 243.39 16.9799C243.314 17.2504 243.308 17.5347 243.373 17.808C243.444 18.1088 243.609 18.3816 243.846 18.5905C244.082 18.7994 244.379 18.9346 244.697 18.9782C246.177 19.1433 247.674 19.1133 249.145 18.8892C251.698 18.5337 254.289 18.4995 256.851 18.7874C258.463 19.0062 259.973 19.6739 261.194 20.7082C262.298 21.67 263.065 22.9362 263.392 24.3334C263.731 25.8316 263.606 27.3923 263.034 28.8235C262.334 30.5179 261.115 31.9683 259.539 32.983C257.216 34.4414 254.615 35.4404 251.886 35.9213C247.164 36.9558 243.633 37.0449 241.294 36.1884C239.015 35.3141 237.184 33.6148 236.197 31.4566V31.4566Z" fill="#D9E4F6"/>
<path d="M268.529 0H279.399V8.0136L277.399 24.1298H270.673L268.529 8.03904V0ZM269.058 26.5594H279.2V35.1835H269.058V26.5594Z" fill="#D9E4F6"/>
<path d="M170.372 168.25H170.134C164.176 166.024 160.614 163.861 158.761 161.254C157.31 161.518 155.809 161.321 154.484 160.694C152.933 159.965 151.646 158.803 150.79 157.361C150.341 157.693 149.811 157.91 149.251 157.992C148.691 158.074 148.118 158.019 147.586 157.832C145.955 157.246 144.562 156.171 143.614 154.767C143.021 155.191 142.284 155.386 141.549 155.314C137.577 155.008 132.281 147.478 131.897 139.464C131.893 139.295 131.957 139.131 132.075 139.006C132.193 138.88 132.357 138.803 132.532 138.79C132.619 138.787 132.706 138.8 132.788 138.829C132.87 138.858 132.944 138.902 133.008 138.958C133.072 139.015 133.124 139.083 133.161 139.159C133.197 139.235 133.217 139.317 133.221 139.401C133.592 147.033 138.663 153.813 141.668 154.042C141.887 154.065 142.108 154.047 142.319 153.988C142.531 153.929 142.728 153.831 142.899 153.698C141.864 151.885 141.214 149.891 140.986 147.835C140.759 145.778 140.959 143.698 141.575 141.716C142.714 137.9 143.72 136.399 144.938 136.628C147.216 137.175 146.911 145.532 145.706 150.989C145.524 151.973 145.146 152.914 144.594 153.762C145.375 155.019 146.553 156.004 147.957 156.573C148.331 156.71 148.739 156.741 149.13 156.662C149.522 156.583 149.883 156.397 150.168 156.128C149.135 153.673 148.844 150.315 150.327 146.041C152.181 140.406 152.975 140.253 153.385 140.151C153.54 140.12 153.7 140.13 153.849 140.179C153.998 140.228 154.131 140.315 154.233 140.431C155.464 141.767 153.994 150.518 152.459 154.843C152.279 155.363 152.03 155.859 151.717 156.318C152.428 157.694 153.585 158.81 155.014 159.498C155.951 159.936 156.994 160.125 158.033 160.045C157.913 159.804 157.808 159.562 157.702 159.308C156.656 156.573 157.172 153.431 159.277 149.666C160.667 147.185 161.806 146.015 162.865 146.015C163.146 146.019 163.421 146.1 163.655 146.249C163.89 146.397 164.075 146.608 164.189 146.855C165.341 148.903 164.507 155.657 162.23 159.015C161.696 159.785 160.955 160.401 160.085 160.796C161.859 163.035 165.235 165.006 170.677 167.016C170.758 167.044 170.833 167.088 170.897 167.144C170.961 167.201 171.012 167.269 171.048 167.345C171.084 167.421 171.103 167.503 171.105 167.586C171.108 167.67 171.092 167.752 171.061 167.83C171.009 167.962 170.914 168.075 170.79 168.151C170.666 168.227 170.519 168.261 170.372 168.25ZM162.852 147.3C162.852 147.3 162.097 147.3 160.429 150.289C158.509 153.698 158.019 156.509 158.933 158.875C159.044 159.168 159.176 159.453 159.33 159.727C160.047 159.443 160.657 158.955 161.078 158.328C162.931 155.606 163.819 150.009 163.13 147.821C163.037 147.376 162.852 147.3 162.852 147.3ZM153.346 141.945C152.629 143.393 152.036 144.895 151.572 146.435C150.556 149.104 150.381 152.002 151.068 154.767L151.188 154.436C152.578 150.404 153.319 146.192 153.385 141.945H153.346ZM144.634 137.938C144.409 138.129 143.76 138.93 142.846 142.034C141.766 145.517 142.107 149.265 143.8 152.515C144.071 151.946 144.271 151.349 144.395 150.734C145.812 144.489 145.415 138.841 144.673 137.938H144.634Z" fill="#263238"/>
<path d="M220.711 234.928C218.594 234.948 216.51 234.425 214.673 233.414C214.522 233.327 214.413 233.186 214.368 233.022C214.324 232.858 214.348 232.684 214.435 232.537C214.479 232.465 214.537 232.402 214.606 232.352C214.675 232.303 214.754 232.267 214.838 232.246C214.922 232.226 215.009 232.222 215.094 232.235C215.18 232.248 215.262 232.277 215.335 232.32C220.062 234.979 226.166 233.122 227.424 231.176C227.514 231.054 227.579 230.915 227.613 230.769C227.647 230.622 227.65 230.471 227.622 230.323C225.205 230.457 222.812 229.802 220.83 228.466C217.454 226.444 217.189 225.833 217.215 225.35C217.222 225.211 217.267 225.076 217.346 224.96C217.426 224.844 217.536 224.75 217.666 224.688C218.99 224.052 224.961 226.685 227.45 228.263C227.748 228.453 228.024 228.675 228.271 228.924C229.249 228.711 230.13 228.203 230.787 227.474C231.156 227.057 231.423 226.566 231.568 226.037H231.303C229.184 226.24 227.066 225.363 224.802 223.353C223.24 221.979 222.644 221.025 222.843 220.275C222.903 220.064 223.024 219.874 223.193 219.727C223.362 219.581 223.571 219.484 223.796 219.448C225.623 219.003 230.151 220.86 231.991 222.806C232.402 223.229 232.693 223.746 232.839 224.307C234.573 223.531 236.4 221.763 238.558 218.875C238.609 218.807 238.672 218.748 238.746 218.703C238.82 218.658 238.903 218.628 238.989 218.613C239.075 218.599 239.163 218.602 239.248 218.62C239.334 218.639 239.414 218.674 239.485 218.723C239.627 218.822 239.723 218.971 239.752 219.137C239.782 219.303 239.743 219.474 239.644 219.613C237.142 222.971 235.05 224.879 232.958 225.655C232.849 226.595 232.448 227.482 231.806 228.199C231.043 229.051 230.041 229.673 228.92 229.993C228.983 230.296 228.982 230.609 228.919 230.912C228.855 231.216 228.729 231.504 228.549 231.761C227.437 233.58 224.233 234.928 220.711 234.928ZM219.533 226.1C219.983 226.418 220.618 226.838 221.532 227.372C222.955 228.295 224.591 228.871 226.298 229.051C224.167 227.824 221.897 226.834 219.533 226.1V226.1ZM224.153 220.694C224.534 221.382 225.062 221.985 225.702 222.462C227.662 224.205 229.449 225.006 231.17 224.803H231.594C231.5 224.408 231.299 224.044 231.012 223.747C229.158 221.737 225.08 220.491 224.153 220.694Z" fill="#263238"/>
<path d="M238.241 233.185L217.613 236.785L198.878 138.561L159.079 145.506L94.2026 256.17L101.167 292.69L184.38 278.176L190.073 308.043L229.873 301.072L224.18 271.205L244.808 267.606L238.241 233.185ZM133.843 251.464L168.267 193.499L177.866 243.794L133.843 251.464Z" fill="#EC8D95"/>
<path d="M404.389 131.896C403.763 125.721 402.34 119.645 400.152 113.808C397.902 108.217 394.777 102.988 390.884 98.3025C386.276 92.8515 380.553 88.3664 374.07 85.1246C367.008 81.4018 357.643 78.8112 345.974 77.3526C321.745 74.3168 302.865 78.4466 289.334 89.7419C275.802 101.037 266.887 122.661 262.589 154.614C260.873 166.556 260.429 178.634 261.265 190.662C262.147 201.686 264.257 210.561 267.594 217.285C271.839 226.354 278.537 234.163 286.99 239.902C295.349 245.541 306.824 249.268 321.414 251.082C347.347 254.33 366.576 249.543 379.101 236.722C391.626 223.9 399.923 202.233 403.992 171.722C405.801 158.511 405.934 145.138 404.389 131.896V131.896Z" fill="#EC8D95"/>
<path d="M333.344 238.019C330.153 237.917 326.724 237.637 323.268 237.205C311.14 235.691 301.766 232.74 295.385 228.441C289.02 224.123 283.988 218.234 280.821 211.396L280.754 211.256C278.212 206.168 276.544 198.854 275.816 189.632C275.044 178.555 275.453 167.431 277.034 156.433C281.761 121.173 291.518 106.456 298.867 100.325C307.446 93.1763 319.031 89.9454 334.257 90.4542C337.382 90.556 340.692 90.8231 344.095 91.2429C353.866 92.5149 361.611 94.5501 367.092 97.4248C371.829 99.7682 376.022 103.009 379.419 106.952C382.391 110.513 384.78 114.49 386.502 118.744C388.261 123.487 389.4 128.422 389.892 133.435C391.304 145.582 391.175 157.85 389.508 169.967C385.84 197.366 378.744 216.624 368.43 227.207C360.777 235.042 349.298 238.655 333.33 238.07L333.344 238.019Z" fill="#263238"/>
<path d="M359.254 132.265L359.426 127.444L356.341 126.477C356.21 124.847 355.935 123.23 355.52 121.644L358.168 119.787L356.394 115.258L353.164 115.513C352.404 114.057 351.518 112.666 350.516 111.353L352.184 108.669L348.742 105.146L345.855 106.57C344.564 105.504 343.182 104.542 341.724 103.696L342.188 100.618L337.607 98.6205L335.515 100.986C333.895 100.482 332.234 100.108 330.55 99.867L329.769 96.8524L324.737 96.687L323.744 99.6381C322.048 99.7685 320.365 100.032 318.713 100.427L316.767 97.8827L312.054 99.5745L312.318 102.678C310.804 103.409 309.356 104.26 307.989 105.222L305.208 103.607L301.528 106.901L303.011 109.687C301.897 110.927 300.9 112.259 300.032 113.668L296.828 113.198L294.736 117.599L297.212 119.608C296.674 121.166 296.284 122.767 296.046 124.391L292.895 125.154L292.723 129.963L295.808 130.929C295.937 132.564 296.212 134.186 296.629 135.776L293.981 137.62L295.755 142.148L298.986 141.894C299.738 143.353 300.624 144.745 301.634 146.053L299.952 148.737L303.395 152.261L306.281 150.849C307.573 151.911 308.954 152.869 310.412 153.711L309.935 156.789L314.516 158.786L316.621 156.433C318.246 156.934 319.911 157.305 321.6 157.54L322.381 160.567L327.399 160.732L328.392 157.768C330.094 157.644 331.781 157.38 333.436 156.98L335.356 159.524L340.069 157.832L339.818 154.741C341.327 154.001 342.774 153.151 344.147 152.197L346.928 153.8L350.608 150.505L349.139 147.72C350.248 146.484 351.24 145.156 352.105 143.751L355.309 144.209L357.401 139.808L354.938 137.798C355.465 136.243 355.85 134.647 356.09 133.028L359.254 132.265ZM325.36 147.872C321.438 147.735 317.647 146.484 314.465 144.278C311.282 142.072 308.852 139.01 307.479 135.478C306.107 131.946 305.854 128.103 306.753 124.433C307.652 120.764 309.663 117.432 312.531 114.859C315.399 112.286 318.997 110.587 322.869 109.977C326.741 109.366 330.715 109.872 334.289 111.429C337.862 112.986 340.876 115.526 342.948 118.727C345.021 121.928 346.06 125.648 345.935 129.416C345.851 131.927 345.252 134.398 344.171 136.687C343.091 138.975 341.55 141.036 339.639 142.751C337.727 144.466 335.481 145.801 333.031 146.68C330.581 147.559 327.974 147.964 325.36 147.872V147.872Z" fill="#EC8D95"/>
<path opacity="0.3" d="M380.147 220.771L380.518 217.514L378.479 216.726C378.475 215.618 378.378 214.511 378.187 213.418L380.028 212.286L379.088 209.145H376.89C376.455 208.123 375.928 207.139 375.314 206.206L376.559 204.476L374.44 201.932L372.415 202.746C371.594 201.966 370.708 201.252 369.767 200.609L370.257 198.549L367.278 196.972L365.715 198.485C364.651 198.064 363.553 197.728 362.432 197.48L362.061 195.407L358.685 195.038L357.851 196.997C356.701 197.002 355.553 197.104 354.422 197.302L353.243 195.496L349.973 196.425V198.536C348.909 198.958 347.886 199.469 346.914 200.062L345.114 198.79L342.466 200.826L343.313 202.772C342.506 203.561 341.766 204.412 341.102 205.316L338.957 204.858L337.329 207.72L338.891 209.208C338.447 210.233 338.097 211.292 337.845 212.375L335.674 212.719L335.316 215.962L337.342 216.777C337.343 217.877 337.445 218.975 337.646 220.058L335.78 221.19L336.733 224.332H338.944C339.386 225.349 339.917 226.328 340.533 227.258L339.209 228.988L341.327 231.532L343.379 230.705C344.194 231.488 345.08 232.199 346.027 232.829L345.564 234.928L348.543 236.493L350.092 235.004C351.157 235.415 352.255 235.743 353.376 235.984L353.76 238.07L357.136 238.426L357.957 236.48C359.128 236.478 360.297 236.385 361.452 236.2L362.63 237.994L365.887 237.078V234.966C366.952 234.536 367.979 234.026 368.959 233.44L370.733 234.712L373.381 232.664L372.521 230.718C373.336 229.929 374.085 229.078 374.758 228.174L376.89 228.632L378.532 225.77L376.969 224.294C377.395 223.27 377.736 222.215 377.989 221.14L380.147 220.771ZM363.107 219.499C362.547 220.483 361.695 221.287 360.66 221.806C359.624 222.326 358.452 222.539 357.29 222.418C356.129 222.297 355.031 221.848 354.135 221.128C353.239 220.408 352.586 219.448 352.258 218.371C351.93 217.294 351.942 216.147 352.292 215.077C352.642 214.006 353.315 213.059 354.226 212.356C355.136 211.653 356.244 211.225 357.407 211.127C358.571 211.028 359.739 211.264 360.763 211.803C362.133 212.528 363.148 213.744 363.588 215.186C364.027 216.628 363.854 218.179 363.107 219.499V219.499Z" fill="#EC8D95"/>
<path d="M398.908 165.795L394.936 163.174C394.545 161.812 394.013 160.491 393.347 159.231L394.353 155.415L388.634 149.526L384.662 150.238C383.402 149.518 382.071 148.917 380.69 148.445V148.445L378.24 144.476L369.859 144.209L367.132 148.025C365.712 148.395 364.336 148.906 363.028 149.551L359.056 148.572L352.925 154.08L353.667 157.896C352.906 159.101 352.28 160.38 351.8 161.712L347.682 164.065L347.391 172.117L351.363 174.737C351.748 176.109 352.28 177.439 352.952 178.706V178.706L351.946 182.522L357.665 188.411L361.637 187.711C362.898 188.431 364.228 189.032 365.609 189.505V189.505L368.046 193.461L376.44 193.741L379.154 189.925C380.585 189.551 381.974 189.04 383.298 188.398V188.398L387.27 189.365L393.4 183.87L392.672 180.054C393.424 178.845 394.05 177.566 394.539 176.238V176.238L398.656 173.885L398.908 165.795ZM372.785 178.031C370.922 177.97 369.119 177.379 367.606 176.333C366.092 175.288 364.935 173.834 364.281 172.156C363.627 170.479 363.505 168.653 363.932 166.909C364.358 165.165 365.313 163.582 366.676 162.36C368.039 161.137 369.749 160.331 371.589 160.042C373.429 159.753 375.317 159.995 377.014 160.737C378.711 161.479 380.141 162.688 381.123 164.211C382.105 165.734 382.594 167.503 382.53 169.293C382.44 171.692 381.364 173.959 379.538 175.597C377.711 177.235 375.283 178.11 372.785 178.031V178.031Z" fill="#D9E4F6"/>
<path d="M427.652 101.521L428.34 99.9306C428.809 99.6772 429.252 99.3834 429.664 99.053H431.2L433.001 96.509L432.418 95.1479C432.641 94.6946 432.819 94.2218 432.948 93.736V93.736L434.272 92.5658L433.716 89.5766L432.048 88.9151C431.786 88.464 431.48 88.0381 431.134 87.6431V86.1676L428.552 84.4377L427.122 85.0101C426.6 84.8332 426.058 84.7137 425.507 84.6539L424.289 83.3819L421.191 83.9162L420.489 85.5189C419.998 85.7636 419.532 86.0533 419.099 86.3838V86.3838H417.576L415.776 88.9278L416.358 90.2889C416.18 90.7928 416.056 91.3127 415.988 91.8407L414.664 93.0237L415.22 96.0002L416.888 96.6616C417.14 97.1149 417.442 97.5413 417.788 97.9336V97.9336V99.3964L420.436 101.126L421.853 100.567C422.383 100.732 422.928 100.847 423.481 100.91V100.91L424.699 102.182L427.652 101.521ZM421.032 93.2781C420.907 92.6144 420.989 91.9299 421.269 91.3113C421.549 90.6927 422.014 90.1678 422.604 89.8029C423.195 89.4381 423.885 89.2497 424.586 89.2617C425.288 89.2737 425.971 89.4855 426.548 89.8702C427.124 90.255 427.569 90.7955 427.826 91.4232C428.083 92.051 428.14 92.7378 427.99 93.3968C427.841 94.0558 427.491 94.6574 426.985 95.1253C426.479 95.5932 425.841 95.9066 425.15 96.0256C424.225 96.1815 423.274 95.9803 422.502 95.4658C421.731 94.9512 421.203 94.165 421.032 93.2781V93.2781Z" fill="#EC8D95"/>
<path d="M391.388 93.0873L390.368 92.2605C392.553 89.6572 395.253 87.4955 398.312 85.9005L398.934 87.0198C396.025 88.5417 393.46 90.6041 391.388 93.0873V93.0873Z" fill="#EC8D95"/>
<path d="M401.953 85.8496L401.437 84.6793C406.326 82.6381 411.672 81.8156 416.981 82.288L416.848 83.56C411.761 83.0994 406.636 83.8872 401.953 85.8496V85.8496Z" fill="#EC8D95"/>
<path d="M399.451 94.6519L398.365 93.9395C401.555 89.8012 406.197 86.9136 411.433 85.8114L411.685 87.0834C406.792 88.11 402.448 90.7971 399.451 94.6519V94.6519Z" fill="#EC8D95"/>
<path d="M311.59 217.12C311.41 217.115 311.239 217.042 311.114 216.916L308.346 214.169C306.936 214.046 305.54 213.799 304.176 213.431L299.846 215.263C299.751 215.313 299.644 215.339 299.535 215.339C299.427 215.339 299.32 215.313 299.224 215.263L291.969 210.646C291.875 210.586 291.799 210.505 291.748 210.409C291.697 210.313 291.673 210.206 291.677 210.099V205.57C290.792 204.506 290.012 203.365 289.347 202.161L285.627 200.788C285.522 200.749 285.43 200.685 285.358 200.603C285.287 200.521 285.238 200.422 285.216 200.317L283.495 192.125C283.472 192.021 283.477 191.912 283.51 191.81C283.542 191.708 283.601 191.615 283.68 191.54L286.54 188.882C286.677 187.527 286.934 186.187 287.308 184.875L285.402 180.715C285.349 180.624 285.322 180.521 285.322 180.416C285.322 180.312 285.349 180.209 285.402 180.118L290.208 173.147C290.267 173.055 290.352 172.981 290.452 172.931C290.552 172.882 290.665 172.86 290.777 172.867L295.49 172.931C296.595 172.076 297.783 171.326 299.039 170.692L300.482 167.118C300.52 167.019 300.584 166.93 300.667 166.861C300.751 166.792 300.851 166.745 300.959 166.723L309.485 165.07C309.594 165.047 309.707 165.051 309.814 165.082C309.921 165.113 310.017 165.17 310.094 165.248L312.861 167.995C314.276 168.119 315.677 168.366 317.045 168.733L321.361 166.901C321.459 166.851 321.568 166.825 321.679 166.825C321.79 166.825 321.899 166.851 321.997 166.901L329.239 171.519C329.331 171.581 329.406 171.662 329.459 171.757C329.512 171.852 329.541 171.958 329.544 172.066L329.464 176.594C330.354 177.658 331.139 178.799 331.808 180.003L335.515 181.39C335.618 181.426 335.71 181.487 335.782 181.568C335.854 181.648 335.903 181.744 335.925 181.847L337.66 190.039C337.68 190.144 337.674 190.252 337.642 190.354C337.609 190.455 337.552 190.548 337.474 190.624L334.601 193.295C334.469 194.646 334.212 195.983 333.833 197.29L335.74 201.449C335.792 201.543 335.819 201.648 335.819 201.754C335.819 201.861 335.792 201.966 335.74 202.06L331 208.966C330.938 209.053 330.855 209.124 330.758 209.172C330.661 209.221 330.553 209.246 330.444 209.246L325.717 209.183C324.609 210.026 323.426 210.775 322.182 211.421L320.739 214.996C320.7 215.097 320.634 215.186 320.548 215.255C320.462 215.324 320.359 215.371 320.249 215.39L311.723 217.12H311.59ZM304.136 212.032C304.197 212.02 304.26 212.02 304.322 212.032C305.751 212.432 307.22 212.692 308.704 212.808C308.863 212.826 309.012 212.893 309.128 212.999L311.776 215.67L319.587 214.156L320.991 210.671C321.056 210.53 321.167 210.414 321.308 210.34C322.631 209.683 323.878 208.895 325.029 207.987C325.151 207.888 325.307 207.838 325.466 207.847L330.06 207.911L334.456 201.551L332.602 197.506C332.55 197.366 332.55 197.213 332.602 197.073C333.012 195.698 333.282 194.288 333.41 192.863C333.423 192.709 333.494 192.565 333.608 192.456L336.389 189.912L334.813 182.407L331.199 181.059C331.043 181.005 330.916 180.895 330.841 180.754C330.154 179.485 329.333 178.287 328.392 177.179C328.297 177.063 328.246 176.92 328.246 176.772V172.346L321.626 168.123L317.429 169.903C317.279 169.955 317.116 169.955 316.966 169.903C315.531 169.505 314.058 169.245 312.57 169.127C312.411 169.109 312.262 169.043 312.146 168.937L309.498 166.265L301.687 167.792L300.297 171.328C300.241 171.474 300.133 171.596 299.992 171.671C298.664 172.327 297.413 173.116 296.258 174.025C296.201 174.074 296.134 174.112 296.061 174.136C295.989 174.16 295.911 174.17 295.835 174.165L291.24 174.101L286.831 180.461L288.685 184.506C288.727 184.591 288.749 184.685 288.749 184.779C288.749 184.874 288.727 184.967 288.685 185.053C288.293 186.396 288.036 187.771 287.917 189.161C287.905 189.316 287.834 189.461 287.719 189.568L284.938 192.112L286.527 199.617L290.128 200.966C290.289 201.03 290.42 201.147 290.499 201.296C291.182 202.557 291.998 203.746 292.935 204.845C293.033 204.959 293.085 205.104 293.081 205.252V209.679L299.701 213.902L303.911 212.121C303.98 212.079 304.056 212.049 304.136 212.032V212.032ZM310.637 207.911C307.45 207.908 304.324 207.076 301.59 205.502C298.856 203.929 296.617 201.673 295.111 198.975C293.605 196.277 292.888 193.237 293.036 190.179C293.185 187.12 294.193 184.158 295.954 181.606V181.606C297.638 179.158 299.955 177.171 302.678 175.841C305.4 174.511 308.436 173.882 311.487 174.017C314.538 174.152 317.501 175.045 320.086 176.609C322.67 178.174 324.787 180.356 326.231 182.942C327.675 185.528 328.395 188.43 328.321 191.363C328.248 194.297 327.383 197.162 325.811 199.679C324.24 202.195 322.015 204.277 319.355 205.719C316.696 207.162 313.692 207.917 310.637 207.911ZM297.066 182.305C295.284 184.889 294.339 187.922 294.351 191.021C294.363 194.12 295.331 197.146 297.133 199.717C298.935 202.287 301.489 204.287 304.474 205.462C307.459 206.638 310.739 206.937 313.901 206.322C317.063 205.707 319.963 204.205 322.236 202.006C324.51 199.807 326.053 197.009 326.671 193.968C327.29 190.926 326.956 187.777 325.711 184.917C324.467 182.058 322.368 179.618 319.68 177.904C317.897 176.758 315.896 175.962 313.791 175.563C311.687 175.164 309.521 175.169 307.418 175.578C305.316 175.987 303.319 176.792 301.542 177.947C299.765 179.102 298.244 180.583 297.066 182.305V182.305Z" fill="#D9E4F6"/>
<path d="M563.799 244.659L543.012 241.962L556.755 142.988L516.665 137.798L419.417 223.811L414.306 260.61L498.102 271.473L493.918 301.581L534.009 306.771L538.193 276.675L558.98 279.372L563.799 244.659ZM458.647 231.023L509.965 186.083L502.921 236.76L458.647 231.023Z" fill="#EC8D95"/>
<path d="M521.828 305.829H521.656C521.484 305.798 521.332 305.703 521.233 305.565C521.134 305.427 521.095 305.257 521.126 305.092L552.108 142.352C552.143 142.188 552.243 142.044 552.386 141.95C552.529 141.855 552.704 141.817 552.876 141.843C553.048 141.874 553.2 141.969 553.299 142.107C553.398 142.245 553.437 142.416 553.406 142.581L522.49 305.308C522.46 305.455 522.377 305.587 522.256 305.682C522.135 305.777 521.984 305.829 521.828 305.829V305.829Z" fill="#263238"/>
<path d="M549.235 145.087C549.224 145.363 549.1 145.625 548.889 145.813C548.678 146.001 548.397 146.102 548.109 146.092C547.822 146.081 547.55 145.962 547.353 145.759C547.157 145.556 547.053 145.287 547.063 145.01C547.074 144.734 547.198 144.472 547.41 144.284C547.621 144.096 547.901 143.995 548.189 144.005C548.477 144.016 548.749 144.135 548.945 144.338C549.141 144.541 549.245 144.81 549.235 145.087Z" fill="#263238"/>
<path d="M544.826 167.092C544.818 167.298 544.747 167.498 544.621 167.665C544.495 167.832 544.321 167.959 544.119 168.031C543.918 168.103 543.699 168.116 543.49 168.068C543.282 168.021 543.092 167.915 542.946 167.763C542.8 167.612 542.704 167.423 542.669 167.22C542.635 167.016 542.665 166.807 542.754 166.62C542.843 166.432 542.988 166.274 543.171 166.166C543.354 166.057 543.566 166.004 543.78 166.011C543.923 166.016 544.063 166.048 544.193 166.105C544.323 166.162 544.439 166.243 544.536 166.343C544.634 166.444 544.709 166.562 544.759 166.69C544.809 166.819 544.831 166.955 544.826 167.092Z" fill="#263238"/>
<path d="M540.417 189.136C540.412 189.273 540.379 189.408 540.32 189.532C540.26 189.657 540.176 189.769 540.071 189.863C539.967 189.956 539.844 190.029 539.71 190.076C539.577 190.124 539.434 190.146 539.292 190.141C539.15 190.138 539.01 190.107 538.88 190.052C538.751 189.996 538.634 189.916 538.536 189.817C538.439 189.717 538.363 189.6 538.313 189.473C538.264 189.345 538.241 189.209 538.246 189.072C538.249 188.934 538.281 188.798 538.34 188.672C538.398 188.546 538.482 188.432 538.587 188.338C538.692 188.243 538.815 188.169 538.95 188.121C539.084 188.072 539.228 188.05 539.371 188.055C539.658 188.068 539.928 188.189 540.124 188.391C540.319 188.593 540.425 188.86 540.417 189.136Z" fill="#263238"/>
<path d="M531.732 212.032C531.702 212.287 531.576 212.523 531.377 212.694C531.178 212.865 530.92 212.96 530.653 212.96C530.385 212.96 530.128 212.865 529.928 212.694C529.729 212.523 529.603 212.287 529.574 212.032C529.557 211.886 529.572 211.739 529.619 211.599C529.665 211.459 529.742 211.331 529.844 211.221C529.945 211.112 530.07 211.025 530.21 210.965C530.349 210.905 530.5 210.874 530.653 210.874C530.805 210.874 530.956 210.905 531.096 210.965C531.235 211.025 531.36 211.112 531.461 211.221C531.563 211.331 531.64 211.459 531.687 211.599C531.733 211.739 531.748 211.886 531.732 212.032V212.032Z" fill="#263238"/>
<path d="M531.586 233.109C531.583 233.247 531.551 233.382 531.492 233.508C531.433 233.633 531.349 233.746 531.244 233.84C531.139 233.933 531.016 234.006 530.881 234.053C530.747 234.1 530.604 234.121 530.461 234.114C530.246 234.106 530.039 234.038 529.865 233.917C529.691 233.796 529.558 233.628 529.484 233.435C529.409 233.242 529.395 233.031 529.445 232.831C529.494 232.63 529.605 232.448 529.762 232.308C529.919 232.167 530.116 232.075 530.328 232.042C530.54 232.009 530.758 232.037 530.953 232.123C531.148 232.209 531.312 232.348 531.425 232.524C531.538 232.699 531.594 232.903 531.586 233.109Z" fill="#263238"/>
<path d="M527.177 255.115C527.172 255.321 527.103 255.522 526.978 255.691C526.854 255.86 526.68 255.989 526.479 256.063C526.278 256.137 526.059 256.151 525.849 256.105C525.639 256.059 525.448 255.954 525.301 255.803C525.153 255.652 525.056 255.463 525.021 255.259C524.986 255.055 525.014 254.846 525.103 254.657C525.192 254.469 525.337 254.31 525.52 254.202C525.703 254.093 525.916 254.039 526.131 254.046C526.417 254.056 526.687 254.174 526.883 254.374C527.078 254.574 527.184 254.84 527.177 255.115V255.115Z" fill="#263238"/>
<path d="M522.768 277.12C522.758 277.398 522.634 277.661 522.423 277.851C522.212 278.042 521.932 278.145 521.643 278.138C521.5 278.133 521.36 278.101 521.23 278.044C521.1 277.987 520.984 277.906 520.886 277.806C520.789 277.705 520.714 277.587 520.664 277.459C520.614 277.33 520.591 277.194 520.597 277.057C520.601 276.92 520.633 276.785 520.692 276.66C520.751 276.535 520.834 276.422 520.938 276.328C521.042 276.234 521.164 276.161 521.297 276.113C521.431 276.064 521.573 276.041 521.715 276.045C521.858 276.05 521.998 276.081 522.128 276.137C522.258 276.193 522.376 276.274 522.473 276.373C522.571 276.473 522.648 276.591 522.698 276.719C522.749 276.847 522.772 276.983 522.768 277.12V277.12Z" fill="#263238"/>
<path d="M518.346 299.139C518.338 299.345 518.267 299.544 518.141 299.711C518.015 299.878 517.841 300.006 517.639 300.077C517.438 300.149 517.219 300.162 517.01 300.115C516.802 300.067 516.612 299.961 516.466 299.81C516.32 299.659 516.224 299.469 516.189 299.266C516.155 299.062 516.185 298.853 516.274 298.666C516.363 298.478 516.508 298.32 516.691 298.212C516.874 298.104 517.086 298.05 517.3 298.057C517.443 298.061 517.584 298.091 517.715 298.148C517.846 298.204 517.963 298.285 518.061 298.386C518.158 298.487 518.234 298.605 518.283 298.735C518.332 298.864 518.353 299.001 518.346 299.139V299.139Z" fill="#263238"/>
<path d="M530.646 212.604C530.497 212.604 530.352 212.555 530.237 212.465C530.121 212.375 530.041 212.249 530.011 212.108C529.991 212.026 529.989 211.942 530.003 211.859C530.018 211.776 530.05 211.697 530.097 211.626C530.143 211.555 530.204 211.494 530.276 211.445C530.348 211.397 530.428 211.363 530.514 211.345L533.797 210.671C533.883 210.652 533.972 210.65 534.059 210.665C534.146 210.68 534.229 210.712 534.303 210.758C534.377 210.804 534.441 210.864 534.49 210.935C534.54 211.005 534.574 211.084 534.592 211.167C534.609 211.249 534.609 211.333 534.593 211.415C534.576 211.497 534.543 211.575 534.495 211.645C534.447 211.715 534.386 211.775 534.313 211.821C534.241 211.868 534.16 211.901 534.075 211.918L530.792 212.592L530.646 212.604Z" fill="#263238"/>
<path d="M541.622 200.889C540.06 204.781 538.734 208.756 537.65 212.795C536.657 217.285 536.604 227.334 536.604 227.334" fill="#263238"/>
<path d="M536.604 227.97C536.428 227.964 536.262 227.893 536.139 227.772C536.016 227.652 535.945 227.49 535.942 227.321C535.942 226.914 536.021 217.145 537.014 212.668C538.092 208.594 539.418 204.585 540.986 200.66C541.013 200.577 541.057 200.499 541.116 200.432C541.175 200.366 541.248 200.312 541.33 200.273C541.412 200.235 541.501 200.214 541.592 200.21C541.683 200.206 541.774 200.221 541.859 200.252C541.944 200.284 542.021 200.332 542.086 200.393C542.15 200.455 542.201 200.529 542.235 200.61C542.268 200.691 542.284 200.778 542.281 200.866C542.278 200.953 542.257 201.039 542.218 201.118C540.657 204.98 539.331 208.926 538.246 212.935C537.279 217.311 537.213 227.232 537.2 227.334C537.201 227.492 537.14 227.645 537.03 227.763C536.92 227.88 536.768 227.954 536.604 227.97Z" fill="#263238"/>
<path d="M294.524 337.756C296.364 309.264 292.988 257.455 348.742 264.324C408.494 271.663 391.401 338.8 391.401 338.8L294.524 337.756Z" fill="#263238"/>
<path d="M332.999 320.635C346.439 320.635 357.335 310.168 357.335 297.256C357.335 284.344 346.439 273.877 332.999 273.877C319.559 273.877 308.664 284.344 308.664 297.256C308.664 310.168 319.559 320.635 332.999 320.635Z" fill="#D9E4F6"/>
<path d="M336.203 273.915C324.671 272.032 312.371 280.186 311.14 288.454L356.831 292.499C355.216 283.073 345.339 275.416 336.203 273.915Z" fill="#263238"/>
<path d="M351.628 296.671C351.297 302.789 347.828 307.585 343.883 307.381C339.937 307.178 336.998 302.077 337.263 295.933C337.527 289.789 341.063 285.019 345.008 285.223C348.954 285.426 351.946 290.565 351.628 296.671Z" fill="#263238"/>
<path d="M332.999 321.907C327.924 321.907 322.963 320.462 318.744 317.753C314.524 315.044 311.235 311.194 309.293 306.69C307.351 302.185 306.843 297.229 307.833 292.447C308.823 287.665 311.267 283.272 314.855 279.825C318.444 276.377 323.016 274.03 327.993 273.078C332.971 272.127 338.13 272.615 342.819 274.481C347.507 276.347 351.515 279.507 354.334 283.56C357.153 287.614 358.658 292.38 358.658 297.256C358.651 303.792 355.946 310.058 351.135 314.68C346.325 319.301 339.802 321.901 332.999 321.907V321.907ZM332.999 275.161C328.447 275.161 323.998 276.458 320.214 278.888C316.429 281.318 313.48 284.771 311.738 288.812C309.997 292.852 309.542 297.298 310.431 301.586C311.32 305.875 313.513 309.814 316.733 312.905C319.952 315.997 324.053 318.101 328.518 318.953C332.983 319.804 337.61 319.365 341.814 317.69C346.019 316.014 349.612 313.179 352.139 309.542C354.666 305.904 356.013 301.629 356.01 297.256C356.003 291.396 353.576 285.778 349.262 281.636C344.948 277.493 339.099 275.165 332.999 275.161V275.161Z" fill="#EC8D95"/>
<path opacity="0.3" d="M384.609 337.044H384.45C384.365 337.026 384.284 336.992 384.213 336.944C384.142 336.895 384.082 336.834 384.036 336.762C383.991 336.691 383.96 336.612 383.947 336.529C383.934 336.446 383.938 336.362 383.96 336.281C383.96 336.116 388.223 318.867 383.841 301.428C383.799 301.26 383.828 301.082 383.922 300.934C384.017 300.786 384.168 300.68 384.344 300.64C384.52 300.599 384.705 300.627 384.859 300.718C385.013 300.809 385.123 300.954 385.165 301.123C389.627 318.931 385.324 336.408 385.284 336.574C385.245 336.714 385.156 336.838 385.033 336.924C384.91 337.01 384.76 337.052 384.609 337.044V337.044Z" fill="#D9E4F6"/>
<path opacity="0.3" d="M380.915 291.863C380.788 291.861 380.664 291.826 380.556 291.761C380.449 291.696 380.362 291.603 380.306 291.494C378.66 287.999 376.551 284.724 374.03 281.75C373.92 281.62 373.869 281.454 373.886 281.287C373.903 281.12 373.988 280.967 374.123 280.86C374.19 280.806 374.268 280.765 374.352 280.74C374.436 280.715 374.525 280.707 374.612 280.715C374.7 280.723 374.785 280.748 374.862 280.788C374.939 280.829 375.008 280.883 375.063 280.949C377.646 284.009 379.813 287.373 381.511 290.96C381.548 291.035 381.57 291.116 381.574 291.199C381.579 291.282 381.566 291.366 381.536 291.444C381.507 291.522 381.461 291.594 381.402 291.655C381.343 291.716 381.272 291.765 381.193 291.799C381.106 291.838 381.011 291.86 380.915 291.863V291.863Z" fill="#D9E4F6"/>
<path d="M170.439 471.418H169.949C168.193 471.371 166.529 470.656 165.322 469.43C164.115 468.203 163.465 466.567 163.514 464.88C163.563 463.193 164.308 461.594 165.584 460.435C166.86 459.276 168.564 458.651 170.319 458.698H170.439C174.265 458.698 183.467 454.234 202.718 425.079C203.229 424.305 203.908 423.646 204.709 423.147C205.51 422.649 206.413 422.323 207.358 422.191C208.302 422.059 209.265 422.125 210.18 422.385C211.096 422.644 211.942 423.09 212.661 423.693C227.779 436.179 244.267 447.046 261.834 456.103C262.647 456.459 263.377 456.968 263.98 457.601C264.582 458.235 265.045 458.979 265.341 459.788C265.636 460.598 265.758 461.457 265.699 462.313C265.64 463.169 265.401 464.005 264.997 464.77C264.593 465.535 264.032 466.214 263.348 466.765C262.664 467.317 261.871 467.73 261.016 467.979C260.161 468.228 259.263 468.308 258.375 468.215C257.487 468.122 256.628 467.857 255.85 467.437C239.523 459.102 224.09 449.243 209.775 438.003C193.635 461.344 181.666 471.418 170.439 471.418Z" fill="#263238"/>
<path d="M211.403 422.548H210.834C209.793 422.403 208.855 421.868 208.225 421.06C207.594 420.251 207.323 419.236 207.471 418.236C208.411 411.876 207.246 388.179 198.891 369.735C198.521 368.919 198.458 368.006 198.715 367.151C198.971 366.296 199.53 365.554 200.295 365.054C218.434 353.186 257.068 351.761 258.71 351.71C259.231 351.694 259.751 351.776 260.24 351.952C260.728 352.128 261.176 352.396 261.557 352.738C261.938 353.081 262.245 353.492 262.461 353.948C262.677 354.405 262.797 354.898 262.814 355.399C262.831 355.9 262.746 356.4 262.562 356.869C262.379 357.338 262.101 357.769 261.744 358.135C261.388 358.501 260.96 358.796 260.484 359.003C260.009 359.21 259.496 359.326 258.974 359.342C258.617 359.342 224.842 360.614 207.497 369.773C214.885 388.14 216.567 411.024 215.335 419.304C215.193 420.208 214.717 421.032 213.996 421.627C213.274 422.222 212.354 422.549 211.403 422.548Z" fill="#263238"/>
<path d="M218.076 417.613C215.428 411.622 203.512 412.296 196.534 417.435C192.801 420.169 187.743 428.425 187.266 431.427C187.108 432.14 187.131 432.88 187.336 433.582C187.54 434.284 187.919 434.929 188.44 435.459C188.961 435.99 189.609 436.391 190.327 436.628C191.045 436.865 191.812 436.931 192.562 436.82C197.13 436.438 203.393 430.066 203.393 430.066C199.222 433.996 204.611 436.769 212.661 431.083C217.056 427.916 221.028 424.316 218.076 417.613Z" fill="#EC8D95"/>
<path d="M445.804 339.436C445.743 339.449 445.68 339.449 445.619 339.436C445.534 339.414 445.455 339.376 445.387 339.324C445.318 339.272 445.261 339.207 445.219 339.133C445.177 339.06 445.15 338.979 445.142 338.895C445.133 338.811 445.142 338.727 445.169 338.647C446.929 332.745 448.849 329.145 451.378 327.199C450.982 325.831 451.056 324.376 451.59 323.052C452.207 321.506 453.296 320.176 454.715 319.236C454.329 318.836 454.055 318.348 453.919 317.819C453.782 317.29 453.787 316.736 453.933 316.209C454.413 314.615 455.405 313.208 456.767 312.189C456.276 311.661 456.006 310.977 456.012 310.269C456.012 306.453 463.307 300.703 471.582 299.609C471.758 299.586 471.936 299.63 472.078 299.733C472.219 299.835 472.312 299.987 472.337 300.156C472.362 300.325 472.315 300.496 472.209 300.632C472.102 300.768 471.943 300.858 471.768 300.881C463.903 301.912 457.31 307.381 457.336 310.269C457.333 310.699 457.504 311.114 457.813 311.426C459.594 310.266 461.598 309.458 463.707 309.049C465.817 308.641 467.99 308.64 470.099 309.047C474.164 309.798 475.819 310.625 475.634 311.808C475.263 314.034 466.617 314.504 460.818 313.843C459.779 313.752 458.768 313.472 457.839 313.016C456.591 313.87 455.662 315.088 455.191 316.489C455.078 316.859 455.078 317.254 455.194 317.624C455.309 317.994 455.533 318.325 455.84 318.575C458.303 317.303 461.758 316.845 466.326 317.812C472.324 319.084 472.549 319.783 472.694 320.203C472.741 320.351 472.745 320.509 472.705 320.659C472.666 320.809 472.584 320.946 472.469 321.055C471.212 322.327 462.01 321.729 457.389 320.635C456.831 320.513 456.292 320.321 455.787 320.063C454.419 320.861 453.367 322.074 452.795 323.51C452.412 324.439 452.307 325.452 452.49 326.436C452.726 326.3 452.969 326.177 453.218 326.067C455.959 324.795 459.269 325.024 463.36 326.703C466.008 327.809 467.332 328.802 467.465 329.806C467.471 330.064 467.403 330.319 467.27 330.543C467.138 330.767 466.944 330.952 466.71 331.078C464.684 332.35 457.614 332.172 453.933 330.29C453.087 329.848 452.382 329.193 451.894 328.395C449.736 330.303 447.989 333.699 446.4 339.028C446.352 339.144 446.27 339.244 446.164 339.316C446.059 339.388 445.934 339.43 445.804 339.436V339.436ZM452.98 327.568C453.349 328.226 453.91 328.765 454.595 329.12C457.588 330.646 463.466 330.989 465.664 330.137C466.114 329.959 466.18 329.819 466.18 329.819C466.18 329.819 466.114 329.107 462.87 327.771C459.163 326.245 456.25 326.029 453.827 327.11C453.535 327.245 453.252 327.398 452.98 327.568V327.568ZM457.402 319.211L457.733 319.3C462.045 320.254 466.482 320.576 470.894 320.254C469.329 319.696 467.716 319.27 466.074 318.982C463.223 318.24 460.207 318.319 457.402 319.211V319.211ZM459.071 312.062C459.682 312.273 460.318 312.409 460.964 312.469C467.584 313.22 473.396 312.342 474.204 311.541C473.979 311.35 473.092 310.803 469.808 310.205C466.113 309.497 462.276 310.161 459.071 312.062V312.062Z" fill="#263238"/>
<path d="M273.446 469.294C274.32 469.027 274.028 468.213 273.049 468.213H255.122C220.989 464.74 197.144 469.396 212.171 470.49C227.198 471.584 211.112 471.355 200.136 475.349C189.16 479.343 281.761 480.348 290.168 475.349C297.9 470.744 261.344 473.021 273.446 469.294Z" fill="#263238"/>
<path d="M401.794 474.369L245.827 469.396L239.353 324.108L423.534 328.064L401.794 474.369Z" fill="#EC8D95"/>
<path d="M294.524 471.584C294.357 471.584 294.196 471.524 294.073 471.416C293.951 471.307 293.875 471.158 293.862 470.998L281.363 325.075C281.352 324.907 281.409 324.741 281.523 324.613C281.637 324.485 281.798 324.404 281.972 324.388C282.146 324.38 282.317 324.436 282.45 324.545C282.582 324.654 282.667 324.807 282.687 324.973L295.252 470.897C295.259 470.98 295.249 471.064 295.222 471.144C295.196 471.224 295.153 471.298 295.096 471.362C295.04 471.426 294.97 471.478 294.893 471.516C294.815 471.554 294.73 471.577 294.643 471.584H294.524Z" fill="#263238"/>
<path d="M401.794 474.369L443.712 468.238L456.913 333.139L423.535 328.064L401.794 474.369Z" fill="#EC8D95"/>
<path opacity="0.2" d="M401.794 474.369L443.712 468.238L456.913 333.139L423.535 328.064L401.794 474.369Z" fill="black"/>
<path d="M259.147 441.399L255.307 355.068C255.212 352.936 255.574 350.807 256.37 348.814C257.165 346.821 258.378 345.006 259.933 343.481C261.488 341.956 263.352 340.754 265.41 339.949C267.468 339.143 269.675 338.752 271.897 338.8L388.488 341.344C390.784 341.393 393.043 341.91 395.115 342.86C397.188 343.81 399.028 345.171 400.513 346.854C401.998 348.536 403.095 350.503 403.731 352.622C404.367 354.742 404.528 356.967 404.204 359.152L391.282 446.08C390.723 449.887 388.72 453.362 385.659 455.839C382.598 458.315 378.692 459.619 374.692 459.5L274.876 456.32C270.778 456.198 266.88 454.593 263.963 451.826C261.045 449.058 259.325 445.334 259.147 441.399V441.399Z" fill="#263238"/>
<path d="M271.751 365.295L289.784 365.842L289.638 370.307L278.345 369.964L278.239 373.296L288.711 373.614L288.566 377.888L278.093 377.557L277.961 381.691L289.572 382.048L289.413 386.779L271.049 386.22L271.751 365.295Z" fill="#D9E4F6"/>
<path d="M293.134 386.894L293.822 365.969L305.05 366.313C306.659 366.305 308.261 366.528 309.803 366.974C310.895 367.326 311.83 368.026 312.451 368.959C312.911 369.638 313.221 370.401 313.36 371.2C313.5 371.999 313.467 372.817 313.264 373.604C313.06 374.39 312.69 375.128 312.176 375.771C311.663 376.414 311.017 376.948 310.279 377.341C309.527 377.713 308.718 377.971 307.883 378.104C308.499 378.295 309.083 378.569 309.617 378.918C310.004 379.263 310.35 379.647 310.65 380.063C310.991 380.459 311.293 380.885 311.55 381.335L314.609 387.504L307.009 387.263L303.62 380.763C303.351 380.142 302.954 379.58 302.455 379.109C301.979 378.779 301.412 378.593 300.826 378.575H300.23L299.952 387.059L293.134 386.894ZM300.31 374.657L303.143 374.746C303.745 374.711 304.342 374.63 304.93 374.505C305.374 374.44 305.775 374.217 306.056 373.881C306.342 373.542 306.505 373.122 306.519 372.686C306.544 372.395 306.501 372.102 306.394 371.829C306.286 371.556 306.116 371.31 305.897 371.108C305.158 370.65 304.286 370.431 303.408 370.485L300.442 370.396L300.31 374.657Z" fill="#D9E4F6"/>
<path d="M316.807 387.568L317.495 366.644L328.71 366.987C330.32 366.978 331.922 367.201 333.463 367.648C334.558 367.996 335.493 368.697 336.111 369.633C336.783 370.652 337.098 371.851 337.011 373.054C337.015 374.07 336.733 375.067 336.194 375.94C335.656 376.814 334.881 377.531 333.953 378.015C333.199 378.386 332.391 378.643 331.556 378.778C332.168 378.968 332.748 379.242 333.277 379.593C333.673 379.927 334.025 380.307 334.323 380.725C334.662 381.122 334.963 381.548 335.224 381.997L338.282 388.153L330.682 387.924L327.293 381.424C327.022 380.805 326.626 380.242 326.128 379.771C325.655 379.427 325.079 379.24 324.486 379.236H323.904L323.612 387.733L316.807 387.568ZM323.97 375.331L326.816 375.408C327.418 375.386 328.017 375.309 328.604 375.179C329.044 375.116 329.442 374.893 329.716 374.555C330.012 374.222 330.177 373.798 330.179 373.36C330.208 373.07 330.168 372.777 330.063 372.504C329.957 372.231 329.789 371.984 329.57 371.782C328.832 371.312 327.951 371.093 327.068 371.159L324.115 371.07L323.97 375.331Z" fill="#D9E4F6"/>
<path d="M339.368 377.85C339.265 376.39 339.501 374.926 340.058 373.564C340.614 372.202 341.478 370.975 342.587 369.971C343.696 368.968 345.023 368.213 346.471 367.761C347.92 367.309 349.455 367.17 350.966 367.356C352.491 367.307 354.01 367.554 355.434 368.08C356.858 368.607 358.157 369.403 359.254 370.421C360.233 371.505 360.973 372.768 361.428 374.135C361.884 375.502 362.045 376.943 361.902 378.371C361.913 380.45 361.404 382.5 360.419 384.35C359.527 385.864 358.192 387.093 356.58 387.886C354.68 388.759 352.577 389.144 350.476 389.005C348.381 389.022 346.309 388.588 344.412 387.733C342.797 386.892 341.479 385.608 340.625 384.045C339.624 382.129 339.189 379.986 339.368 377.85V377.85ZM346.094 378.079C345.895 379.682 346.273 381.303 347.166 382.671C347.583 383.118 348.091 383.481 348.657 383.736C349.223 383.992 349.837 384.135 350.462 384.157C351.088 384.18 351.711 384.081 352.296 383.868C352.88 383.654 353.414 383.329 353.865 382.912C354.847 381.485 355.312 379.786 355.189 378.079C355.367 376.546 354.978 375.001 354.091 373.716C353.689 373.271 353.193 372.915 352.636 372.672C352.078 372.428 351.472 372.303 350.86 372.304C350.242 372.261 349.622 372.354 349.047 372.574C348.471 372.794 347.955 373.137 347.537 373.576C346.534 374.874 346.025 376.464 346.094 378.079V378.079Z" fill="#D9E4F6"/>
<path d="M365.305 389.107L365.993 368.17L377.208 368.513C378.817 368.511 380.418 368.734 381.961 369.175C383.05 369.532 383.983 370.231 384.609 371.159C385.277 372.18 385.593 373.378 385.509 374.581C385.515 375.598 385.234 376.598 384.696 377.474C384.157 378.35 383.381 379.069 382.451 379.554C381.694 379.914 380.887 380.167 380.054 380.305C380.667 380.498 381.247 380.777 381.775 381.132C382.171 381.466 382.523 381.846 382.821 382.264C383.162 382.66 383.464 383.086 383.722 383.536L386.78 389.705L379.18 389.476L375.791 382.963C375.521 382.347 375.125 381.789 374.626 381.322C374.151 380.981 373.577 380.79 372.984 380.776H372.402L372.11 389.272L365.305 389.107ZM372.468 376.858L375.314 376.947C375.916 376.925 376.515 376.848 377.102 376.718C377.54 376.65 377.937 376.428 378.214 376.095C378.526 375.74 378.692 375.287 378.677 374.823C378.706 374.534 378.666 374.244 378.56 373.973C378.455 373.702 378.287 373.457 378.068 373.258C377.33 372.788 376.449 372.569 375.566 372.635L372.613 372.546L372.468 376.858Z" fill="#D9E4F6"/>
<path d="M376.016 424.66C375.768 424.664 375.521 424.618 375.293 424.523C375.064 424.429 374.86 424.289 374.692 424.113L363.359 412.194L351.125 422.93C350.786 423.228 350.338 423.385 349.878 423.366C349.419 423.347 348.986 423.153 348.675 422.828L337.342 410.909L325.108 421.645C324.769 421.943 324.321 422.1 323.862 422.081C323.402 422.062 322.97 421.868 322.659 421.543L311.312 409.624L299.092 420.36C298.913 420.515 298.704 420.634 298.476 420.708C298.249 420.782 298.007 420.811 297.768 420.793C297.308 420.766 296.876 420.57 296.563 420.246L285.229 408.34L273.009 419.063C272.668 419.362 272.217 419.519 271.756 419.5C271.294 419.481 270.859 419.287 270.546 418.961C270.392 418.8 270.272 418.611 270.194 418.404C270.116 418.198 270.082 417.979 270.093 417.76C270.104 417.541 270.16 417.327 270.259 417.129C270.357 416.931 270.495 416.754 270.665 416.608L284.17 404.74C284.511 404.441 284.962 404.284 285.423 404.303C285.885 404.322 286.32 404.516 286.633 404.842L297.966 416.76L310.187 406.025C310.533 405.732 310.983 405.577 311.445 405.592C311.905 405.616 312.338 405.812 312.649 406.139L323.983 418.058L336.217 407.322C336.384 407.173 336.58 407.057 336.794 406.981C337.008 406.905 337.236 406.871 337.463 406.881C337.691 406.89 337.915 406.943 338.121 407.036C338.328 407.13 338.513 407.261 338.666 407.424L349.999 419.343L362.233 408.607C362.572 408.309 363.021 408.152 363.48 408.171C363.939 408.19 364.372 408.383 364.683 408.709L377.34 421.912C377.566 422.155 377.714 422.456 377.765 422.778C377.816 423.1 377.769 423.43 377.629 423.726C377.488 424.023 377.261 424.274 376.975 424.449C376.688 424.623 376.355 424.714 376.016 424.71V424.66Z" fill="#D9E4F6"/>
<path d="M166.493 477.46L158.205 473.657L150.817 439.097L154.829 434.861L166.493 477.46Z" fill="#EC8D95"/>
<path d="M166.493 477.46L177.495 471.278L168.069 442.811L154.829 434.861L166.493 477.46Z" fill="#EC8D95"/>
<path opacity="0.2" d="M166.493 477.46L177.495 471.278L168.069 442.811L154.829 434.861L166.493 477.46Z" fill="black"/>
<path d="M346.888 483.744H345.974C344.219 483.698 342.554 482.985 341.346 481.76C340.138 480.535 339.486 478.899 339.533 477.212C339.581 475.525 340.323 473.926 341.598 472.765C342.874 471.605 344.576 470.978 346.332 471.024C356.527 471.342 378.108 465.325 390.448 453.826C391.193 453.124 392.1 452.601 393.096 452.3C414.002 446.271 421.773 458.444 422.091 458.965L410.705 465.44C410.745 465.521 410.794 465.598 410.85 465.669C410.731 465.503 407.765 461.853 398.339 464.092C382.861 477.651 359.109 483.744 346.888 483.744Z" fill="#263238"/>
<path d="M346.081 492.19L321.97 490.74L320.077 448.026L352.475 449.184L346.081 492.19Z" fill="#EC8D95"/>
<path d="M346.08 492.19L351.721 486.797L355.216 460.174L352.475 449.184L346.08 492.19Z" fill="#EC8D95"/>
<path opacity="0.2" d="M346.08 492.19L351.721 486.797L355.216 460.174L352.475 449.184L346.08 492.19Z" fill="black"/>
<path d="M485.789 476.023C484.923 476.022 484.082 475.75 483.392 475.247C469.623 465.198 451.021 447.352 443.884 430.142C443.777 429.893 443.702 429.632 443.659 429.366C440.177 409.472 436.854 367.61 436.708 365.842C436.669 365.341 436.733 364.837 436.897 364.36C437.06 363.883 437.32 363.441 437.661 363.06C438.35 362.291 439.329 361.816 440.382 361.74C441.436 361.664 442.477 361.993 443.278 362.655C444.079 363.317 444.573 364.258 444.652 365.27C444.652 365.69 448.055 407.958 451.444 427.687C458.567 444.426 477.924 461.611 488.225 469.167C488.888 469.65 489.377 470.322 489.621 471.086C489.866 471.851 489.854 472.67 489.588 473.428C489.321 474.185 488.814 474.844 488.137 475.309C487.46 475.775 486.648 476.025 485.815 476.023H485.789Z" fill="#263238"/>
<path d="M504.153 477.944C501.081 477.944 497.599 476.608 493.799 473.975C492.946 473.381 492.373 472.486 492.207 471.487C492.04 470.487 492.294 469.465 492.912 468.645C493.53 467.825 494.462 467.275 495.502 467.115C496.542 466.956 497.606 467.199 498.46 467.793C501.743 470.07 503.53 470.337 504.153 470.337C505.206 470.337 506.216 470.739 506.961 471.455C507.706 472.17 508.125 473.141 508.125 474.153C508.125 475.165 507.706 476.136 506.961 476.851C506.216 477.567 505.206 477.969 504.153 477.969V477.944Z" fill="#263238"/>
<path d="M494.911 473.86C499.161 461.738 516.585 464.13 522.596 465.936C527.731 467.368 532.655 469.419 537.253 472.042C540.497 474.077 540.55 477.498 536.22 479.445C530.924 481.836 517.472 479.712 517.472 479.712C524.41 482.625 517.472 487.344 505.278 482.714C501.319 481.213 493.415 478.312 494.911 473.86Z" fill="#EC8D95"/>
<path d="M452.623 371.032C451.047 381.335 442.163 388.929 434.934 387.911C427.705 386.894 427.414 377.735 428.989 367.381C430.565 357.027 433.425 349.573 440.654 350.591C447.883 351.609 454.198 360.767 452.623 371.032Z" fill="#263238"/>
<path d="M277.881 329.946C278.481 329.946 278.967 329.479 278.967 328.903C278.967 328.327 278.481 327.86 277.881 327.86C277.281 327.86 276.795 328.327 276.795 328.903C276.795 329.479 277.281 329.946 277.881 329.946Z" fill="#263238"/>
<path d="M288.91 336.408C288.91 336.614 288.846 336.816 288.727 336.988C288.608 337.159 288.438 337.293 288.24 337.372C288.042 337.451 287.823 337.471 287.613 337.431C287.402 337.391 287.209 337.292 287.057 337.146C286.905 337 286.802 336.814 286.76 336.612C286.718 336.409 286.739 336.2 286.821 336.009C286.904 335.818 287.043 335.656 287.221 335.541C287.4 335.426 287.61 335.365 287.824 335.365C288.112 335.365 288.389 335.475 288.592 335.671C288.796 335.866 288.91 336.132 288.91 336.408Z" fill="#263238"/>
<path d="M290.128 459.665C290.128 459.871 290.064 460.073 289.945 460.244C289.826 460.416 289.656 460.55 289.458 460.629C289.26 460.708 289.041 460.728 288.831 460.688C288.62 460.648 288.427 460.548 288.275 460.402C288.123 460.257 288.02 460.071 287.978 459.868C287.936 459.666 287.957 459.456 288.039 459.266C288.122 459.075 288.261 458.912 288.439 458.798C288.618 458.683 288.828 458.622 289.042 458.622C289.33 458.622 289.607 458.732 289.81 458.927C290.014 459.123 290.128 459.388 290.128 459.665V459.665Z" fill="#263238"/>
<path d="M300.072 467.183C300.072 467.389 300.008 467.59 299.889 467.762C299.769 467.934 299.6 468.067 299.401 468.146C299.203 468.225 298.985 468.246 298.774 468.206C298.563 468.165 298.37 468.066 298.218 467.92C298.066 467.774 297.963 467.588 297.921 467.386C297.879 467.184 297.901 466.974 297.983 466.783C298.065 466.593 298.204 466.43 298.383 466.315C298.561 466.201 298.771 466.139 298.986 466.139C299.274 466.139 299.55 466.249 299.754 466.445C299.957 466.641 300.072 466.906 300.072 467.183Z" fill="#263238"/>
<path d="M109.243 479.686C107.337 479.601 105.475 479.105 103.796 478.235C102.116 477.365 100.661 476.144 99.5382 474.662C99.4832 474.594 99.4432 474.515 99.4206 474.432C99.3981 474.348 99.3934 474.261 99.407 474.176C99.4206 474.091 99.4522 474.009 99.4997 473.936C99.5473 473.862 99.6098 473.799 99.6836 473.75C99.7573 473.701 99.8407 473.666 99.9288 473.649C100.017 473.632 100.108 473.632 100.195 473.649C100.283 473.667 100.367 473.701 100.44 473.751C100.514 473.8 100.577 473.864 100.624 473.937C103.1 477.371 108.568 479.19 110.951 478.109C111.19 478.012 111.402 477.864 111.573 477.677C110.369 477.167 109.314 476.381 108.501 475.387C107.688 474.393 107.143 473.222 106.913 471.978C106.608 470.363 106.37 468.162 107.747 467.882C109.654 467.475 112.143 471.889 113.043 475.234C113.206 475.788 113.264 476.365 113.215 476.939C113.979 477.157 114.782 477.218 115.572 477.117C115.928 477.091 116.274 476.993 116.589 476.831C116.903 476.669 117.179 476.446 117.399 476.176C116.528 475.544 115.805 474.743 115.278 473.824C114.751 472.906 114.431 471.891 114.341 470.846C113.837 467.361 114.221 466.763 114.619 466.457C114.747 466.363 114.901 466.304 115.062 466.288C115.224 466.273 115.386 466.3 115.532 466.368C116.949 466.941 118.657 471.876 118.988 474.675C119.027 474.966 119.027 475.261 118.988 475.552C119.559 475.763 120.164 475.875 120.775 475.883C121.898 475.925 123.008 475.646 123.966 475.082C123.781 474.967 123.609 474.84 123.436 474.713C122.112 473.581 121.503 471.774 121.742 469.205C121.927 467.208 122.39 466.114 123.225 465.771C123.494 465.667 123.788 465.64 124.073 465.695C124.357 465.749 124.619 465.881 124.827 466.076C125.72 467.024 126.388 468.148 126.784 469.369C127.179 470.591 127.293 471.88 127.117 473.148C127.002 473.676 126.772 474.175 126.442 474.611C128.878 475.018 132.294 474.357 135.246 473.657C135.333 473.637 135.424 473.634 135.512 473.647C135.6 473.66 135.685 473.69 135.761 473.735C135.837 473.78 135.904 473.839 135.956 473.909C136.009 473.978 136.047 474.057 136.067 474.14C136.088 474.224 136.092 474.311 136.078 474.395C136.064 474.48 136.033 474.562 135.986 474.635C135.939 474.708 135.878 474.772 135.805 474.822C135.733 474.873 135.651 474.909 135.564 474.929C131.976 475.781 128.11 476.481 125.383 475.718C124.051 476.69 122.421 477.209 120.749 477.193C120.007 477.184 119.272 477.05 118.577 476.799C118.269 477.256 117.856 477.64 117.369 477.92C116.883 478.2 116.336 478.369 115.77 478.414C114.775 478.537 113.764 478.455 112.805 478.173C112.496 478.672 112.033 479.068 111.481 479.305C110.771 479.58 110.008 479.71 109.243 479.686V479.686ZM108.104 469.154C107.921 470.019 107.958 470.913 108.21 471.762C108.397 472.779 108.836 473.738 109.491 474.557C110.146 475.376 110.996 476.032 111.971 476.468C111.952 476.167 111.899 475.868 111.812 475.578C110.779 471.94 108.793 469.434 108.104 469.154V469.154ZM115.479 468.047C115.488 468.925 115.563 469.801 115.704 470.668C115.85 472.219 116.563 473.67 117.717 474.764C117.391 472.415 116.633 470.141 115.479 468.047V468.047ZM123.807 466.941C123.807 466.941 123.304 467.183 123.119 469.307C122.933 471.431 123.317 472.894 124.35 473.746C124.594 473.936 124.861 474.098 125.144 474.229C125.493 473.872 125.739 473.433 125.859 472.957C126.095 470.955 125.532 468.942 124.284 467.322C124.006 466.992 123.847 466.941 123.807 466.941V466.941Z" fill="#263238"/>
<path d="M303.024 489.303L306.612 483.324L303.024 477.346H299.184L301.355 483.324L299.184 489.303H303.024Z" fill="#263238"/>
<path d="M299.436 486.441C298.993 486.468 298.55 486.408 298.132 486.264C297.715 486.12 297.333 485.895 297.009 485.603C296.686 485.312 296.428 484.96 296.252 484.569C296.076 484.178 295.985 483.757 295.985 483.331C295.985 482.905 296.076 482.483 296.252 482.092C296.428 481.701 296.686 481.349 297.009 481.058C297.333 480.766 297.715 480.542 298.132 480.398C298.55 480.254 298.993 480.193 299.436 480.221L293.345 479.05L291.717 483.782L294.444 487.776L299.436 486.441Z" fill="#263238"/>
<path d="M299.965 477.346H292.776L289.188 483.324L292.776 489.303H299.965L303.553 483.324L299.965 477.346ZM296.377 486.441C295.735 486.443 295.107 486.262 294.572 485.922C294.036 485.581 293.619 485.095 293.371 484.526C293.123 483.956 293.057 483.329 293.181 482.724C293.305 482.119 293.613 481.562 294.066 481.125C294.519 480.688 295.097 480.39 295.726 480.269C296.356 480.147 297.009 480.208 297.602 480.444C298.196 480.679 298.703 481.079 299.06 481.591C299.417 482.104 299.608 482.707 299.608 483.324C299.608 484.148 299.268 484.939 298.662 485.523C298.057 486.107 297.235 486.437 296.377 486.441V486.441Z" fill="#EC8D95"/>
<path d="M553.286 476.939L550.625 472.499L553.286 468.06H556.133L554.531 472.499L556.133 476.939H553.286Z" fill="#EC8D95"/>
<path d="M555.948 474.814C556.278 474.838 556.61 474.796 556.923 474.691C557.236 474.585 557.523 474.419 557.766 474.202C558.009 473.986 558.202 473.723 558.335 473.431C558.467 473.139 558.536 472.824 558.536 472.506C558.536 472.187 558.467 471.872 558.335 471.58C558.202 471.288 558.009 471.026 557.766 470.809C557.523 470.593 557.236 470.426 556.923 470.321C556.61 470.216 556.278 470.174 555.948 470.197L560.476 469.332L561.68 472.843L559.668 475.807L555.948 474.814Z" fill="#EC8D95"/>
<path d="M555.564 468.06H560.86L563.508 472.499L560.86 476.939H555.564L552.916 472.499L555.564 468.06ZM558.212 474.814C558.689 474.817 559.156 474.683 559.554 474.431C559.952 474.178 560.263 473.817 560.447 473.394C560.632 472.971 560.681 472.506 560.59 472.056C560.498 471.606 560.27 471.192 559.933 470.867C559.597 470.542 559.168 470.32 558.7 470.23C558.232 470.14 557.747 470.185 557.306 470.359C556.865 470.534 556.487 470.831 556.222 471.212C555.957 471.593 555.815 472.041 555.815 472.499C555.813 472.804 555.874 473.106 555.995 473.387C556.115 473.669 556.293 473.925 556.517 474.14C556.741 474.356 557.007 474.526 557.301 474.642C557.594 474.757 557.908 474.816 558.225 474.814H558.212Z" fill="#263238"/>
<path d="M454.132 482.841H460.116C460.866 482.837 461.583 482.549 462.111 482.039C462.64 481.529 462.937 480.838 462.937 480.119V480.119C462.937 479.399 462.64 478.708 462.111 478.198C461.583 477.688 460.866 477.4 460.116 477.397H454.132C453.381 477.397 452.66 477.683 452.128 478.194C451.597 478.704 451.299 479.397 451.299 480.119V480.119C451.299 480.841 451.597 481.533 452.128 482.043C452.66 482.554 453.381 482.841 454.132 482.841V482.841Z" fill="#263238"/>
<path d="M444.507 477.702C445.062 476.732 445.901 475.939 446.92 475.421C447.938 474.903 449.093 474.683 450.24 474.788C451.388 474.893 452.478 475.318 453.377 476.011C454.276 476.704 454.944 477.635 455.299 478.689C455.654 479.742 455.68 480.872 455.374 481.94C455.069 483.008 454.444 483.966 453.578 484.697C452.712 485.428 451.643 485.9 450.501 486.053C449.36 486.207 448.196 486.037 447.155 485.563C445.723 484.854 444.641 483.629 444.145 482.157C443.649 480.684 443.779 479.083 444.507 477.702Z" fill="#EC8D95"/>
<path d="M446.121 485.561L447.762 486.304L453.464 474.684L451.823 473.941L446.121 485.561Z" fill="#263238"/>
</svg>
