<svg width="84" height="84" viewBox="0 0 84 84" fill="none" xmlns="http://www.w3.org/2000/svg">
<circle cx="41.6202" cy="41.6202" r="41.6202" fill="#676BE6"/>
<path d="M48.5352 23.9823L39.7766 35.9762C39.2082 36.7547 37.9917 36.5299 37.7389 35.5997L36.8706 32.4041C36.5959 31.3931 36.7957 30.3121 37.4135 29.466L43.1352 21.6309C46.5493 16.9557 53.107 15.9333 57.7822 19.3474C62.3706 22.6982 63.4542 29.0945 60.2253 33.7696L54.6415 41.8543C53.9963 42.7885 52.9325 43.3453 51.7971 43.343L48.0505 43.3357C47.111 43.3339 46.5703 42.267 47.1243 41.5082L55.9622 29.4059C57.4598 27.355 57.0114 24.4783 54.9605 22.9806C52.9096 21.4829 50.0329 21.9314 48.5352 23.9823Z" fill="white"/>
<path d="M34.732 59.4524L43.4906 47.4585C44.0591 46.68 45.2756 46.9048 45.5283 47.835L46.3966 51.0306C46.6713 52.0415 46.4716 53.1226 45.8537 53.9687L40.1321 61.8038C36.718 66.479 30.1603 67.5014 25.4851 64.0873C20.8966 60.7365 19.8131 54.3402 23.042 49.6651L28.6258 41.5804C29.271 40.6462 30.3347 40.0894 31.4701 40.0917L35.2168 40.0989C36.1563 40.1008 36.697 41.1677 36.1429 41.9264L27.3051 54.0288C25.8074 56.0797 26.2559 58.9564 28.3068 60.4541C30.3577 61.9518 33.2344 61.5033 34.732 59.4524Z" fill="white"/>
<path d="M36.9413 53.3376L47.7629 38.5186C48.706 37.2272 48.4235 35.4157 47.1321 34.4726C45.8406 33.5295 44.0292 33.8119 43.0861 35.1034L32.2645 49.9223C31.3214 51.2138 31.6038 53.0252 32.8953 53.9683C34.1867 54.9114 35.9982 54.629 36.9413 53.3376Z" fill="white"/>
<path d="M45.3696 16.4271H31.0002" stroke="white" stroke-width="1.14955" stroke-linecap="round"/>
<path d="M41.3461 18.7262L25.2524 18.7262" stroke="white" stroke-width="1.14955" stroke-linecap="round"/>
<path d="M29.2758 16.4271H27.5515" stroke="white" stroke-width="1.14955" stroke-linecap="round"/>
</svg>
