<svg width="32" height="32" viewBox="0 0 32 32" fill="none" xmlns="http://www.w3.org/2000/svg">
<g clip-path="url(#clip0_106_200)">
<path d="M16.8056 14.5178H16.8056L25.5572 14.4849C25.5703 14.4849 25.5765 14.4883 25.5801 14.4909C25.585 14.4945 25.5905 14.501 25.594 14.5103C25.5975 14.5196 25.5976 14.5281 25.5963 14.534C25.5954 14.5383 25.593 14.5449 25.5831 14.5536L25.5831 14.5536L10.5391 27.6657L10.7034 27.8542L10.5391 27.6657C10.5316 27.6723 10.5262 27.6748 10.5234 27.6759C10.5206 27.677 10.5181 27.6774 10.5156 27.6774C10.5099 27.6774 10.5003 27.6752 10.4901 27.6677C10.48 27.6602 10.4751 27.6516 10.4734 27.6462C10.4727 27.6438 10.4723 27.6413 10.4725 27.6383C10.4727 27.6353 10.4735 27.6294 10.4776 27.6203L10.288 27.5358L10.4776 27.6203L14.5418 18.495L14.5418 18.495C14.6998 18.1401 14.4422 17.7398 14.0539 17.7364L6.06431 17.6681C6.05142 17.668 6.04529 17.6646 6.04167 17.6619C6.0368 17.6583 6.03142 17.6519 6.02798 17.6427C6.02453 17.6336 6.02437 17.6252 6.02567 17.6193C6.02664 17.6149 6.02901 17.6082 6.03863 17.5997L5.87257 17.4128L6.03863 17.5997L21.0998 4.21529L21.0998 4.21527C21.1079 4.20813 21.1135 4.20549 21.1162 4.20447C21.119 4.20341 21.1213 4.20305 21.1238 4.20306C21.1293 4.2031 21.1392 4.20539 21.1498 4.21357C21.1604 4.22174 21.1651 4.23079 21.1665 4.23611C21.1671 4.23846 21.1674 4.24083 21.1671 4.24379C21.1667 4.24666 21.1656 4.25279 21.1607 4.26236L21.3829 4.37585L21.1607 4.26237L16.3234 13.7334L16.3234 13.7334C16.1398 14.0929 16.4019 14.5193 16.8056 14.5178Z" fill="#FFB636" stroke="#20232A" stroke-width="0.5"/>
</g>
<defs>
<clipPath id="clip0_106_200">
<rect width="24" height="24" fill="white" transform="translate(4 4)"/>
</clipPath>
</defs>
</svg>
